M48
; DRILL file KiCad 10.0.0 date 2026-07-10T07:55:58
; FORMAT={-:-/ absolute / metric / decimal}
; #@! TF.CreationDate,2026-07-10T07:55:58+05:30
; #@! TF.GenerationSoftware,Kicad,Pcbnew,10.0.0
; #@! TF.FileFunction,Plated,1,2,PTH
FMAT,2
METRIC
; #@! TA.AperFunction,Plated,PTH,ComponentDrill
T1C0.800
; #@! TA.AperFunction,Plated,PTH,ComponentDrill
T2C1.000
; #@! TA.AperFunction,Plated,PTH,ComponentDrill
T3C2.200
%
G90
G05
T1
X135.14Y-84.25
X135.14Y-86.79
X135.14Y-89.33
X135.14Y-91.87
X135.14Y-94.41
X135.14Y-96.95
X135.14Y-99.49
X135.14Y-102.03
X135.14Y-104.57
X135.14Y-107.11
X135.14Y-109.65
X135.14Y-112.19
X135.14Y-114.73
X135.14Y-117.27
X138.915Y-105.903
X138.915Y-108.444
X138.915Y-110.983
X138.915Y-113.523
X146.535Y-105.903
X146.535Y-108.444
X146.535Y-110.983
X146.535Y-113.523
X150.38Y-84.25
X150.38Y-86.79
X150.38Y-89.33
X150.38Y-91.87
X150.38Y-94.41
X150.38Y-96.95
X150.38Y-99.49
X150.38Y-102.03
X150.38Y-104.57
X150.38Y-107.11
X150.38Y-109.65
X150.38Y-112.19
X150.38Y-114.73
X150.38Y-117.27
T2
X89.389Y-76.6
X89.389Y-79.14
X89.389Y-81.68
X89.389Y-84.22
X89.389Y-86.76
X89.389Y-89.3
X89.389Y-91.84
X89.389Y-94.38
X89.389Y-96.92
X89.389Y-99.46
X89.389Y-102.0
X89.389Y-104.54
X89.389Y-107.08
X89.389Y-109.62
X89.389Y-112.16
X89.389Y-114.7
X89.389Y-117.24
X89.389Y-119.78
X89.389Y-122.32
X89.389Y-124.86
X91.929Y-76.6
X91.929Y-79.14
X91.929Y-81.68
X91.929Y-84.22
X91.929Y-86.76
X91.929Y-89.3
X91.929Y-91.84
X91.929Y-94.38
X91.929Y-96.92
X91.929Y-99.46
X91.929Y-102.0
X91.929Y-104.54
X91.929Y-107.08
X91.929Y-109.62
X91.929Y-112.16
X91.929Y-114.7
X91.929Y-117.24
X91.929Y-119.78
X91.929Y-122.32
X91.929Y-124.86
X112.509Y-76.586
X115.049Y-76.586
X117.589Y-76.586
T3
X154.025Y-125.75
X154.85Y-75.725
M30
