%TF.GenerationSoftware,KiCad,Pcbnew,10.0.0*%
%TF.CreationDate,2026-07-10T07:55:58+05:30*%
%TF.ProjectId,Lora Tester (EEPROM Programmer),4c6f7261-2054-4657-9374-657220284545,rev?*%
%TF.SameCoordinates,Original*%
%TF.FileFunction,Drillmap*%
%TF.FilePolarity,Positive*%
%FSLAX45Y45*%
G04 Gerber Fmt 4.5, Leading zero omitted, Abs format (unit mm)*
G04 Created by KiCad (PCBNEW 10.0.0) date 2026-07-10 07:55:58*
%MOMM*%
%LPD*%
G01*
G04 APERTURE LIST*
%ADD10C,0.050000*%
%ADD11C,0.200000*%
%ADD12C,0.100000*%
%ADD13C,0.220000*%
G04 APERTURE END LIST*
D10*
X8776935Y-7275000D02*
X15776935Y-7275000D01*
X15776935Y-12875000D01*
X8776935Y-12875000D01*
X8776935Y-7275000D01*
D11*
D12*
X13474035Y-8385000D02*
X13554035Y-8465000D01*
X13554035Y-8385000D02*
X13474035Y-8465000D01*
X13474035Y-8639000D02*
X13554035Y-8719000D01*
X13554035Y-8639000D02*
X13474035Y-8719000D01*
X13474035Y-8893000D02*
X13554035Y-8973000D01*
X13554035Y-8893000D02*
X13474035Y-8973000D01*
X13474035Y-9147000D02*
X13554035Y-9227000D01*
X13554035Y-9147000D02*
X13474035Y-9227000D01*
X13474035Y-9401000D02*
X13554035Y-9481000D01*
X13554035Y-9401000D02*
X13474035Y-9481000D01*
X13474035Y-9655000D02*
X13554035Y-9735000D01*
X13554035Y-9655000D02*
X13474035Y-9735000D01*
X13474035Y-9909000D02*
X13554035Y-9989000D01*
X13554035Y-9909000D02*
X13474035Y-9989000D01*
X13474035Y-10163000D02*
X13554035Y-10243000D01*
X13554035Y-10163000D02*
X13474035Y-10243000D01*
X13474035Y-10417000D02*
X13554035Y-10497000D01*
X13554035Y-10417000D02*
X13474035Y-10497000D01*
X13474035Y-10671000D02*
X13554035Y-10751000D01*
X13554035Y-10671000D02*
X13474035Y-10751000D01*
X13474035Y-10925000D02*
X13554035Y-11005000D01*
X13554035Y-10925000D02*
X13474035Y-11005000D01*
X13474035Y-11179000D02*
X13554035Y-11259000D01*
X13554035Y-11179000D02*
X13474035Y-11259000D01*
X13474035Y-11433000D02*
X13554035Y-11513000D01*
X13554035Y-11433000D02*
X13474035Y-11513000D01*
X13474035Y-11687000D02*
X13554035Y-11767000D01*
X13554035Y-11687000D02*
X13474035Y-11767000D01*
X13851535Y-10550350D02*
X13931535Y-10630350D01*
X13931535Y-10550350D02*
X13851535Y-10630350D01*
X13851535Y-10804350D02*
X13931535Y-10884350D01*
X13931535Y-10804350D02*
X13851535Y-10884350D01*
X13851535Y-11058350D02*
X13931535Y-11138350D01*
X13931535Y-11058350D02*
X13851535Y-11138350D01*
X13851535Y-11312350D02*
X13931535Y-11392350D01*
X13931535Y-11312350D02*
X13851535Y-11392350D01*
X14613535Y-10550350D02*
X14693535Y-10630350D01*
X14693535Y-10550350D02*
X14613535Y-10630350D01*
X14613535Y-10804350D02*
X14693535Y-10884350D01*
X14693535Y-10804350D02*
X14613535Y-10884350D01*
X14613535Y-11058350D02*
X14693535Y-11138350D01*
X14693535Y-11058350D02*
X14613535Y-11138350D01*
X14613535Y-11312350D02*
X14693535Y-11392350D01*
X14693535Y-11312350D02*
X14613535Y-11392350D01*
X14998035Y-8385000D02*
X15078035Y-8465000D01*
X15078035Y-8385000D02*
X14998035Y-8465000D01*
X14998035Y-8639000D02*
X15078035Y-8719000D01*
X15078035Y-8639000D02*
X14998035Y-8719000D01*
X14998035Y-8893000D02*
X15078035Y-8973000D01*
X15078035Y-8893000D02*
X14998035Y-8973000D01*
X14998035Y-9147000D02*
X15078035Y-9227000D01*
X15078035Y-9147000D02*
X14998035Y-9227000D01*
X14998035Y-9401000D02*
X15078035Y-9481000D01*
X15078035Y-9401000D02*
X14998035Y-9481000D01*
X14998035Y-9655000D02*
X15078035Y-9735000D01*
X15078035Y-9655000D02*
X14998035Y-9735000D01*
X14998035Y-9909000D02*
X15078035Y-9989000D01*
X15078035Y-9909000D02*
X14998035Y-9989000D01*
X14998035Y-10163000D02*
X15078035Y-10243000D01*
X15078035Y-10163000D02*
X14998035Y-10243000D01*
X14998035Y-10417000D02*
X15078035Y-10497000D01*
X15078035Y-10417000D02*
X14998035Y-10497000D01*
X14998035Y-10671000D02*
X15078035Y-10751000D01*
X15078035Y-10671000D02*
X14998035Y-10751000D01*
X14998035Y-10925000D02*
X15078035Y-11005000D01*
X15078035Y-10925000D02*
X14998035Y-11005000D01*
X14998035Y-11179000D02*
X15078035Y-11259000D01*
X15078035Y-11179000D02*
X14998035Y-11259000D01*
X14998035Y-11433000D02*
X15078035Y-11513000D01*
X15078035Y-11433000D02*
X14998035Y-11513000D01*
X14998035Y-11687000D02*
X15078035Y-11767000D01*
X15078035Y-11687000D02*
X14998035Y-11767000D01*
X8988895Y-7660000D02*
G75*
G02*
X8888895Y-7660000I-50000J0D01*
G01*
X8888895Y-7660000D02*
G75*
G02*
X8988895Y-7660000I50000J0D01*
G01*
X8988895Y-7914000D02*
G75*
G02*
X8888895Y-7914000I-50000J0D01*
G01*
X8888895Y-7914000D02*
G75*
G02*
X8988895Y-7914000I50000J0D01*
G01*
X8988895Y-8168000D02*
G75*
G02*
X8888895Y-8168000I-50000J0D01*
G01*
X8888895Y-8168000D02*
G75*
G02*
X8988895Y-8168000I50000J0D01*
G01*
X8988895Y-8422000D02*
G75*
G02*
X8888895Y-8422000I-50000J0D01*
G01*
X8888895Y-8422000D02*
G75*
G02*
X8988895Y-8422000I50000J0D01*
G01*
X8988895Y-8676000D02*
G75*
G02*
X8888895Y-8676000I-50000J0D01*
G01*
X8888895Y-8676000D02*
G75*
G02*
X8988895Y-8676000I50000J0D01*
G01*
X8988895Y-8930000D02*
G75*
G02*
X8888895Y-8930000I-50000J0D01*
G01*
X8888895Y-8930000D02*
G75*
G02*
X8988895Y-8930000I50000J0D01*
G01*
X8988895Y-9184000D02*
G75*
G02*
X8888895Y-9184000I-50000J0D01*
G01*
X8888895Y-9184000D02*
G75*
G02*
X8988895Y-9184000I50000J0D01*
G01*
X8988895Y-9438000D02*
G75*
G02*
X8888895Y-9438000I-50000J0D01*
G01*
X8888895Y-9438000D02*
G75*
G02*
X8988895Y-9438000I50000J0D01*
G01*
X8988895Y-9692000D02*
G75*
G02*
X8888895Y-9692000I-50000J0D01*
G01*
X8888895Y-9692000D02*
G75*
G02*
X8988895Y-9692000I50000J0D01*
G01*
X8988895Y-9946000D02*
G75*
G02*
X8888895Y-9946000I-50000J0D01*
G01*
X8888895Y-9946000D02*
G75*
G02*
X8988895Y-9946000I50000J0D01*
G01*
X8988895Y-10200000D02*
G75*
G02*
X8888895Y-10200000I-50000J0D01*
G01*
X8888895Y-10200000D02*
G75*
G02*
X8988895Y-10200000I50000J0D01*
G01*
X8988895Y-10454000D02*
G75*
G02*
X8888895Y-10454000I-50000J0D01*
G01*
X8888895Y-10454000D02*
G75*
G02*
X8988895Y-10454000I50000J0D01*
G01*
X8988895Y-10708000D02*
G75*
G02*
X8888895Y-10708000I-50000J0D01*
G01*
X8888895Y-10708000D02*
G75*
G02*
X8988895Y-10708000I50000J0D01*
G01*
X8988895Y-10962000D02*
G75*
G02*
X8888895Y-10962000I-50000J0D01*
G01*
X8888895Y-10962000D02*
G75*
G02*
X8988895Y-10962000I50000J0D01*
G01*
X8988895Y-11216000D02*
G75*
G02*
X8888895Y-11216000I-50000J0D01*
G01*
X8888895Y-11216000D02*
G75*
G02*
X8988895Y-11216000I50000J0D01*
G01*
X8988895Y-11470000D02*
G75*
G02*
X8888895Y-11470000I-50000J0D01*
G01*
X8888895Y-11470000D02*
G75*
G02*
X8988895Y-11470000I50000J0D01*
G01*
X8988895Y-11724000D02*
G75*
G02*
X8888895Y-11724000I-50000J0D01*
G01*
X8888895Y-11724000D02*
G75*
G02*
X8988895Y-11724000I50000J0D01*
G01*
X8988895Y-11978000D02*
G75*
G02*
X8888895Y-11978000I-50000J0D01*
G01*
X8888895Y-11978000D02*
G75*
G02*
X8988895Y-11978000I50000J0D01*
G01*
X8988895Y-12232000D02*
G75*
G02*
X8888895Y-12232000I-50000J0D01*
G01*
X8888895Y-12232000D02*
G75*
G02*
X8988895Y-12232000I50000J0D01*
G01*
X8988895Y-12486000D02*
G75*
G02*
X8888895Y-12486000I-50000J0D01*
G01*
X8888895Y-12486000D02*
G75*
G02*
X8988895Y-12486000I50000J0D01*
G01*
X9242895Y-7660000D02*
G75*
G02*
X9142895Y-7660000I-50000J0D01*
G01*
X9142895Y-7660000D02*
G75*
G02*
X9242895Y-7660000I50000J0D01*
G01*
X9242895Y-7914000D02*
G75*
G02*
X9142895Y-7914000I-50000J0D01*
G01*
X9142895Y-7914000D02*
G75*
G02*
X9242895Y-7914000I50000J0D01*
G01*
X9242895Y-8168000D02*
G75*
G02*
X9142895Y-8168000I-50000J0D01*
G01*
X9142895Y-8168000D02*
G75*
G02*
X9242895Y-8168000I50000J0D01*
G01*
X9242895Y-8422000D02*
G75*
G02*
X9142895Y-8422000I-50000J0D01*
G01*
X9142895Y-8422000D02*
G75*
G02*
X9242895Y-8422000I50000J0D01*
G01*
X9242895Y-8676000D02*
G75*
G02*
X9142895Y-8676000I-50000J0D01*
G01*
X9142895Y-8676000D02*
G75*
G02*
X9242895Y-8676000I50000J0D01*
G01*
X9242895Y-8930000D02*
G75*
G02*
X9142895Y-8930000I-50000J0D01*
G01*
X9142895Y-8930000D02*
G75*
G02*
X9242895Y-8930000I50000J0D01*
G01*
X9242895Y-9184000D02*
G75*
G02*
X9142895Y-9184000I-50000J0D01*
G01*
X9142895Y-9184000D02*
G75*
G02*
X9242895Y-9184000I50000J0D01*
G01*
X9242895Y-9438000D02*
G75*
G02*
X9142895Y-9438000I-50000J0D01*
G01*
X9142895Y-9438000D02*
G75*
G02*
X9242895Y-9438000I50000J0D01*
G01*
X9242895Y-9692000D02*
G75*
G02*
X9142895Y-9692000I-50000J0D01*
G01*
X9142895Y-9692000D02*
G75*
G02*
X9242895Y-9692000I50000J0D01*
G01*
X9242895Y-9946000D02*
G75*
G02*
X9142895Y-9946000I-50000J0D01*
G01*
X9142895Y-9946000D02*
G75*
G02*
X9242895Y-9946000I50000J0D01*
G01*
X9242895Y-10200000D02*
G75*
G02*
X9142895Y-10200000I-50000J0D01*
G01*
X9142895Y-10200000D02*
G75*
G02*
X9242895Y-10200000I50000J0D01*
G01*
X9242895Y-10454000D02*
G75*
G02*
X9142895Y-10454000I-50000J0D01*
G01*
X9142895Y-10454000D02*
G75*
G02*
X9242895Y-10454000I50000J0D01*
G01*
X9242895Y-10708000D02*
G75*
G02*
X9142895Y-10708000I-50000J0D01*
G01*
X9142895Y-10708000D02*
G75*
G02*
X9242895Y-10708000I50000J0D01*
G01*
X9242895Y-10962000D02*
G75*
G02*
X9142895Y-10962000I-50000J0D01*
G01*
X9142895Y-10962000D02*
G75*
G02*
X9242895Y-10962000I50000J0D01*
G01*
X9242895Y-11216000D02*
G75*
G02*
X9142895Y-11216000I-50000J0D01*
G01*
X9142895Y-11216000D02*
G75*
G02*
X9242895Y-11216000I50000J0D01*
G01*
X9242895Y-11470000D02*
G75*
G02*
X9142895Y-11470000I-50000J0D01*
G01*
X9142895Y-11470000D02*
G75*
G02*
X9242895Y-11470000I50000J0D01*
G01*
X9242895Y-11724000D02*
G75*
G02*
X9142895Y-11724000I-50000J0D01*
G01*
X9142895Y-11724000D02*
G75*
G02*
X9242895Y-11724000I50000J0D01*
G01*
X9242895Y-11978000D02*
G75*
G02*
X9142895Y-11978000I-50000J0D01*
G01*
X9142895Y-11978000D02*
G75*
G02*
X9242895Y-11978000I50000J0D01*
G01*
X9242895Y-12232000D02*
G75*
G02*
X9142895Y-12232000I-50000J0D01*
G01*
X9142895Y-12232000D02*
G75*
G02*
X9242895Y-12232000I50000J0D01*
G01*
X9242895Y-12486000D02*
G75*
G02*
X9142895Y-12486000I-50000J0D01*
G01*
X9142895Y-12486000D02*
G75*
G02*
X9242895Y-12486000I50000J0D01*
G01*
X11300895Y-7658570D02*
G75*
G02*
X11200895Y-7658570I-50000J0D01*
G01*
X11200895Y-7658570D02*
G75*
G02*
X11300895Y-7658570I50000J0D01*
G01*
X11554895Y-7658570D02*
G75*
G02*
X11454895Y-7658570I-50000J0D01*
G01*
X11454895Y-7658570D02*
G75*
G02*
X11554895Y-7658570I50000J0D01*
G01*
X11808895Y-7658570D02*
G75*
G02*
X11708895Y-7658570I-50000J0D01*
G01*
X11708895Y-7658570D02*
G75*
G02*
X11808895Y-7658570I50000J0D01*
G01*
D13*
X15402500Y-12465000D02*
X15402500Y-12685000D01*
X15292500Y-12575000D02*
X15512500Y-12575000D01*
X15485000Y-7462500D02*
X15485000Y-7682500D01*
X15375000Y-7572500D02*
X15595000Y-7572500D01*
D11*
X9035212Y-13188984D02*
X9035212Y-12988984D01*
X9035212Y-12988984D02*
X9082831Y-12988984D01*
X9082831Y-12988984D02*
X9111402Y-12998508D01*
X9111402Y-12998508D02*
X9130450Y-13017555D01*
X9130450Y-13017555D02*
X9139974Y-13036603D01*
X9139974Y-13036603D02*
X9149498Y-13074698D01*
X9149498Y-13074698D02*
X9149498Y-13103269D01*
X9149498Y-13103269D02*
X9139974Y-13141365D01*
X9139974Y-13141365D02*
X9130450Y-13160412D01*
X9130450Y-13160412D02*
X9111402Y-13179460D01*
X9111402Y-13179460D02*
X9082831Y-13188984D01*
X9082831Y-13188984D02*
X9035212Y-13188984D01*
X9235212Y-13188984D02*
X9235212Y-13055650D01*
X9235212Y-13093746D02*
X9244736Y-13074698D01*
X9244736Y-13074698D02*
X9254259Y-13065174D01*
X9254259Y-13065174D02*
X9273307Y-13055650D01*
X9273307Y-13055650D02*
X9292355Y-13055650D01*
X9359021Y-13188984D02*
X9359021Y-13055650D01*
X9359021Y-12988984D02*
X9349498Y-12998508D01*
X9349498Y-12998508D02*
X9359021Y-13008031D01*
X9359021Y-13008031D02*
X9368545Y-12998508D01*
X9368545Y-12998508D02*
X9359021Y-12988984D01*
X9359021Y-12988984D02*
X9359021Y-13008031D01*
X9482831Y-13188984D02*
X9463783Y-13179460D01*
X9463783Y-13179460D02*
X9454259Y-13160412D01*
X9454259Y-13160412D02*
X9454259Y-12988984D01*
X9587593Y-13188984D02*
X9568545Y-13179460D01*
X9568545Y-13179460D02*
X9559021Y-13160412D01*
X9559021Y-13160412D02*
X9559021Y-12988984D01*
X9816164Y-13188984D02*
X9816164Y-12988984D01*
X9816164Y-12988984D02*
X9882831Y-13131841D01*
X9882831Y-13131841D02*
X9949498Y-12988984D01*
X9949498Y-12988984D02*
X9949498Y-13188984D01*
X10130450Y-13188984D02*
X10130450Y-13084222D01*
X10130450Y-13084222D02*
X10120926Y-13065174D01*
X10120926Y-13065174D02*
X10101879Y-13055650D01*
X10101879Y-13055650D02*
X10063783Y-13055650D01*
X10063783Y-13055650D02*
X10044736Y-13065174D01*
X10130450Y-13179460D02*
X10111402Y-13188984D01*
X10111402Y-13188984D02*
X10063783Y-13188984D01*
X10063783Y-13188984D02*
X10044736Y-13179460D01*
X10044736Y-13179460D02*
X10035212Y-13160412D01*
X10035212Y-13160412D02*
X10035212Y-13141365D01*
X10035212Y-13141365D02*
X10044736Y-13122317D01*
X10044736Y-13122317D02*
X10063783Y-13112793D01*
X10063783Y-13112793D02*
X10111402Y-13112793D01*
X10111402Y-13112793D02*
X10130450Y-13103269D01*
X10225688Y-13055650D02*
X10225688Y-13255650D01*
X10225688Y-13065174D02*
X10244736Y-13055650D01*
X10244736Y-13055650D02*
X10282831Y-13055650D01*
X10282831Y-13055650D02*
X10301879Y-13065174D01*
X10301879Y-13065174D02*
X10311402Y-13074698D01*
X10311402Y-13074698D02*
X10320926Y-13093746D01*
X10320926Y-13093746D02*
X10320926Y-13150888D01*
X10320926Y-13150888D02*
X10311402Y-13169936D01*
X10311402Y-13169936D02*
X10301879Y-13179460D01*
X10301879Y-13179460D02*
X10282831Y-13188984D01*
X10282831Y-13188984D02*
X10244736Y-13188984D01*
X10244736Y-13188984D02*
X10225688Y-13179460D01*
X10406640Y-13169936D02*
X10416164Y-13179460D01*
X10416164Y-13179460D02*
X10406640Y-13188984D01*
X10406640Y-13188984D02*
X10397117Y-13179460D01*
X10397117Y-13179460D02*
X10406640Y-13169936D01*
X10406640Y-13169936D02*
X10406640Y-13188984D01*
X10406640Y-13065174D02*
X10416164Y-13074698D01*
X10416164Y-13074698D02*
X10406640Y-13084222D01*
X10406640Y-13084222D02*
X10397117Y-13074698D01*
X10397117Y-13074698D02*
X10406640Y-13065174D01*
X10406640Y-13065174D02*
X10406640Y-13084222D01*
D12*
X8694435Y-13477500D02*
X8774435Y-13557500D01*
X8774435Y-13477500D02*
X8694435Y-13557500D01*
D11*
X9073307Y-13408984D02*
X9092355Y-13408984D01*
X9092355Y-13408984D02*
X9111402Y-13418508D01*
X9111402Y-13418508D02*
X9120926Y-13428031D01*
X9120926Y-13428031D02*
X9130450Y-13447079D01*
X9130450Y-13447079D02*
X9139974Y-13485174D01*
X9139974Y-13485174D02*
X9139974Y-13532793D01*
X9139974Y-13532793D02*
X9130450Y-13570888D01*
X9130450Y-13570888D02*
X9120926Y-13589936D01*
X9120926Y-13589936D02*
X9111402Y-13599460D01*
X9111402Y-13599460D02*
X9092355Y-13608984D01*
X9092355Y-13608984D02*
X9073307Y-13608984D01*
X9073307Y-13608984D02*
X9054259Y-13599460D01*
X9054259Y-13599460D02*
X9044736Y-13589936D01*
X9044736Y-13589936D02*
X9035212Y-13570888D01*
X9035212Y-13570888D02*
X9025688Y-13532793D01*
X9025688Y-13532793D02*
X9025688Y-13485174D01*
X9025688Y-13485174D02*
X9035212Y-13447079D01*
X9035212Y-13447079D02*
X9044736Y-13428031D01*
X9044736Y-13428031D02*
X9054259Y-13418508D01*
X9054259Y-13418508D02*
X9073307Y-13408984D01*
X9225688Y-13589936D02*
X9235212Y-13599460D01*
X9235212Y-13599460D02*
X9225688Y-13608984D01*
X9225688Y-13608984D02*
X9216164Y-13599460D01*
X9216164Y-13599460D02*
X9225688Y-13589936D01*
X9225688Y-13589936D02*
X9225688Y-13608984D01*
X9349498Y-13494698D02*
X9330450Y-13485174D01*
X9330450Y-13485174D02*
X9320926Y-13475650D01*
X9320926Y-13475650D02*
X9311402Y-13456603D01*
X9311402Y-13456603D02*
X9311402Y-13447079D01*
X9311402Y-13447079D02*
X9320926Y-13428031D01*
X9320926Y-13428031D02*
X9330450Y-13418508D01*
X9330450Y-13418508D02*
X9349498Y-13408984D01*
X9349498Y-13408984D02*
X9387593Y-13408984D01*
X9387593Y-13408984D02*
X9406640Y-13418508D01*
X9406640Y-13418508D02*
X9416164Y-13428031D01*
X9416164Y-13428031D02*
X9425688Y-13447079D01*
X9425688Y-13447079D02*
X9425688Y-13456603D01*
X9425688Y-13456603D02*
X9416164Y-13475650D01*
X9416164Y-13475650D02*
X9406640Y-13485174D01*
X9406640Y-13485174D02*
X9387593Y-13494698D01*
X9387593Y-13494698D02*
X9349498Y-13494698D01*
X9349498Y-13494698D02*
X9330450Y-13504222D01*
X9330450Y-13504222D02*
X9320926Y-13513746D01*
X9320926Y-13513746D02*
X9311402Y-13532793D01*
X9311402Y-13532793D02*
X9311402Y-13570888D01*
X9311402Y-13570888D02*
X9320926Y-13589936D01*
X9320926Y-13589936D02*
X9330450Y-13599460D01*
X9330450Y-13599460D02*
X9349498Y-13608984D01*
X9349498Y-13608984D02*
X9387593Y-13608984D01*
X9387593Y-13608984D02*
X9406640Y-13599460D01*
X9406640Y-13599460D02*
X9416164Y-13589936D01*
X9416164Y-13589936D02*
X9425688Y-13570888D01*
X9425688Y-13570888D02*
X9425688Y-13532793D01*
X9425688Y-13532793D02*
X9416164Y-13513746D01*
X9416164Y-13513746D02*
X9406640Y-13504222D01*
X9406640Y-13504222D02*
X9387593Y-13494698D01*
X9549498Y-13408984D02*
X9568545Y-13408984D01*
X9568545Y-13408984D02*
X9587593Y-13418508D01*
X9587593Y-13418508D02*
X9597117Y-13428031D01*
X9597117Y-13428031D02*
X9606640Y-13447079D01*
X9606640Y-13447079D02*
X9616164Y-13485174D01*
X9616164Y-13485174D02*
X9616164Y-13532793D01*
X9616164Y-13532793D02*
X9606640Y-13570888D01*
X9606640Y-13570888D02*
X9597117Y-13589936D01*
X9597117Y-13589936D02*
X9587593Y-13599460D01*
X9587593Y-13599460D02*
X9568545Y-13608984D01*
X9568545Y-13608984D02*
X9549498Y-13608984D01*
X9549498Y-13608984D02*
X9530450Y-13599460D01*
X9530450Y-13599460D02*
X9520926Y-13589936D01*
X9520926Y-13589936D02*
X9511402Y-13570888D01*
X9511402Y-13570888D02*
X9501879Y-13532793D01*
X9501879Y-13532793D02*
X9501879Y-13485174D01*
X9501879Y-13485174D02*
X9511402Y-13447079D01*
X9511402Y-13447079D02*
X9520926Y-13428031D01*
X9520926Y-13428031D02*
X9530450Y-13418508D01*
X9530450Y-13418508D02*
X9549498Y-13408984D01*
X9739974Y-13408984D02*
X9759021Y-13408984D01*
X9759021Y-13408984D02*
X9778069Y-13418508D01*
X9778069Y-13418508D02*
X9787593Y-13428031D01*
X9787593Y-13428031D02*
X9797117Y-13447079D01*
X9797117Y-13447079D02*
X9806640Y-13485174D01*
X9806640Y-13485174D02*
X9806640Y-13532793D01*
X9806640Y-13532793D02*
X9797117Y-13570888D01*
X9797117Y-13570888D02*
X9787593Y-13589936D01*
X9787593Y-13589936D02*
X9778069Y-13599460D01*
X9778069Y-13599460D02*
X9759021Y-13608984D01*
X9759021Y-13608984D02*
X9739974Y-13608984D01*
X9739974Y-13608984D02*
X9720926Y-13599460D01*
X9720926Y-13599460D02*
X9711402Y-13589936D01*
X9711402Y-13589936D02*
X9701879Y-13570888D01*
X9701879Y-13570888D02*
X9692355Y-13532793D01*
X9692355Y-13532793D02*
X9692355Y-13485174D01*
X9692355Y-13485174D02*
X9701879Y-13447079D01*
X9701879Y-13447079D02*
X9711402Y-13428031D01*
X9711402Y-13428031D02*
X9720926Y-13418508D01*
X9720926Y-13418508D02*
X9739974Y-13408984D01*
X9892355Y-13608984D02*
X9892355Y-13475650D01*
X9892355Y-13494698D02*
X9901879Y-13485174D01*
X9901879Y-13485174D02*
X9920926Y-13475650D01*
X9920926Y-13475650D02*
X9949498Y-13475650D01*
X9949498Y-13475650D02*
X9968545Y-13485174D01*
X9968545Y-13485174D02*
X9978069Y-13504222D01*
X9978069Y-13504222D02*
X9978069Y-13608984D01*
X9978069Y-13504222D02*
X9987593Y-13485174D01*
X9987593Y-13485174D02*
X10006640Y-13475650D01*
X10006640Y-13475650D02*
X10035212Y-13475650D01*
X10035212Y-13475650D02*
X10054260Y-13485174D01*
X10054260Y-13485174D02*
X10063783Y-13504222D01*
X10063783Y-13504222D02*
X10063783Y-13608984D01*
X10159021Y-13608984D02*
X10159021Y-13475650D01*
X10159021Y-13494698D02*
X10168545Y-13485174D01*
X10168545Y-13485174D02*
X10187593Y-13475650D01*
X10187593Y-13475650D02*
X10216164Y-13475650D01*
X10216164Y-13475650D02*
X10235212Y-13485174D01*
X10235212Y-13485174D02*
X10244736Y-13504222D01*
X10244736Y-13504222D02*
X10244736Y-13608984D01*
X10244736Y-13504222D02*
X10254260Y-13485174D01*
X10254260Y-13485174D02*
X10273307Y-13475650D01*
X10273307Y-13475650D02*
X10301879Y-13475650D01*
X10301879Y-13475650D02*
X10320926Y-13485174D01*
X10320926Y-13485174D02*
X10330450Y-13504222D01*
X10330450Y-13504222D02*
X10330450Y-13608984D01*
X10720926Y-13399460D02*
X10549498Y-13656603D01*
X10978069Y-13408984D02*
X10997117Y-13408984D01*
X10997117Y-13408984D02*
X11016164Y-13418508D01*
X11016164Y-13418508D02*
X11025688Y-13428031D01*
X11025688Y-13428031D02*
X11035212Y-13447079D01*
X11035212Y-13447079D02*
X11044736Y-13485174D01*
X11044736Y-13485174D02*
X11044736Y-13532793D01*
X11044736Y-13532793D02*
X11035212Y-13570888D01*
X11035212Y-13570888D02*
X11025688Y-13589936D01*
X11025688Y-13589936D02*
X11016164Y-13599460D01*
X11016164Y-13599460D02*
X10997117Y-13608984D01*
X10997117Y-13608984D02*
X10978069Y-13608984D01*
X10978069Y-13608984D02*
X10959022Y-13599460D01*
X10959022Y-13599460D02*
X10949498Y-13589936D01*
X10949498Y-13589936D02*
X10939974Y-13570888D01*
X10939974Y-13570888D02*
X10930450Y-13532793D01*
X10930450Y-13532793D02*
X10930450Y-13485174D01*
X10930450Y-13485174D02*
X10939974Y-13447079D01*
X10939974Y-13447079D02*
X10949498Y-13428031D01*
X10949498Y-13428031D02*
X10959022Y-13418508D01*
X10959022Y-13418508D02*
X10978069Y-13408984D01*
X11130450Y-13589936D02*
X11139974Y-13599460D01*
X11139974Y-13599460D02*
X11130450Y-13608984D01*
X11130450Y-13608984D02*
X11120926Y-13599460D01*
X11120926Y-13599460D02*
X11130450Y-13589936D01*
X11130450Y-13589936D02*
X11130450Y-13608984D01*
X11263783Y-13408984D02*
X11282831Y-13408984D01*
X11282831Y-13408984D02*
X11301879Y-13418508D01*
X11301879Y-13418508D02*
X11311402Y-13428031D01*
X11311402Y-13428031D02*
X11320926Y-13447079D01*
X11320926Y-13447079D02*
X11330450Y-13485174D01*
X11330450Y-13485174D02*
X11330450Y-13532793D01*
X11330450Y-13532793D02*
X11320926Y-13570888D01*
X11320926Y-13570888D02*
X11311402Y-13589936D01*
X11311402Y-13589936D02*
X11301879Y-13599460D01*
X11301879Y-13599460D02*
X11282831Y-13608984D01*
X11282831Y-13608984D02*
X11263783Y-13608984D01*
X11263783Y-13608984D02*
X11244736Y-13599460D01*
X11244736Y-13599460D02*
X11235212Y-13589936D01*
X11235212Y-13589936D02*
X11225688Y-13570888D01*
X11225688Y-13570888D02*
X11216164Y-13532793D01*
X11216164Y-13532793D02*
X11216164Y-13485174D01*
X11216164Y-13485174D02*
X11225688Y-13447079D01*
X11225688Y-13447079D02*
X11235212Y-13428031D01*
X11235212Y-13428031D02*
X11244736Y-13418508D01*
X11244736Y-13418508D02*
X11263783Y-13408984D01*
X11397117Y-13408984D02*
X11520926Y-13408984D01*
X11520926Y-13408984D02*
X11454260Y-13485174D01*
X11454260Y-13485174D02*
X11482831Y-13485174D01*
X11482831Y-13485174D02*
X11501879Y-13494698D01*
X11501879Y-13494698D02*
X11511402Y-13504222D01*
X11511402Y-13504222D02*
X11520926Y-13523269D01*
X11520926Y-13523269D02*
X11520926Y-13570888D01*
X11520926Y-13570888D02*
X11511402Y-13589936D01*
X11511402Y-13589936D02*
X11501879Y-13599460D01*
X11501879Y-13599460D02*
X11482831Y-13608984D01*
X11482831Y-13608984D02*
X11425688Y-13608984D01*
X11425688Y-13608984D02*
X11406641Y-13599460D01*
X11406641Y-13599460D02*
X11397117Y-13589936D01*
X11711402Y-13608984D02*
X11597117Y-13608984D01*
X11654260Y-13608984D02*
X11654260Y-13408984D01*
X11654260Y-13408984D02*
X11635212Y-13437555D01*
X11635212Y-13437555D02*
X11616164Y-13456603D01*
X11616164Y-13456603D02*
X11597117Y-13466127D01*
X11892355Y-13408984D02*
X11797117Y-13408984D01*
X11797117Y-13408984D02*
X11787593Y-13504222D01*
X11787593Y-13504222D02*
X11797117Y-13494698D01*
X11797117Y-13494698D02*
X11816164Y-13485174D01*
X11816164Y-13485174D02*
X11863783Y-13485174D01*
X11863783Y-13485174D02*
X11882831Y-13494698D01*
X11882831Y-13494698D02*
X11892355Y-13504222D01*
X11892355Y-13504222D02*
X11901879Y-13523269D01*
X11901879Y-13523269D02*
X11901879Y-13570888D01*
X11901879Y-13570888D02*
X11892355Y-13589936D01*
X11892355Y-13589936D02*
X11882831Y-13599460D01*
X11882831Y-13599460D02*
X11863783Y-13608984D01*
X11863783Y-13608984D02*
X11816164Y-13608984D01*
X11816164Y-13608984D02*
X11797117Y-13599460D01*
X11797117Y-13599460D02*
X11787593Y-13589936D01*
X11978069Y-13408984D02*
X11978069Y-13447079D01*
X12054260Y-13408984D02*
X12054260Y-13447079D01*
X12349498Y-13685174D02*
X12339974Y-13675650D01*
X12339974Y-13675650D02*
X12320926Y-13647079D01*
X12320926Y-13647079D02*
X12311403Y-13628031D01*
X12311403Y-13628031D02*
X12301879Y-13599460D01*
X12301879Y-13599460D02*
X12292355Y-13551841D01*
X12292355Y-13551841D02*
X12292355Y-13513746D01*
X12292355Y-13513746D02*
X12301879Y-13466127D01*
X12301879Y-13466127D02*
X12311403Y-13437555D01*
X12311403Y-13437555D02*
X12320926Y-13418508D01*
X12320926Y-13418508D02*
X12339974Y-13389936D01*
X12339974Y-13389936D02*
X12349498Y-13380412D01*
X12406641Y-13408984D02*
X12530450Y-13408984D01*
X12530450Y-13408984D02*
X12463783Y-13485174D01*
X12463783Y-13485174D02*
X12492355Y-13485174D01*
X12492355Y-13485174D02*
X12511403Y-13494698D01*
X12511403Y-13494698D02*
X12520926Y-13504222D01*
X12520926Y-13504222D02*
X12530450Y-13523269D01*
X12530450Y-13523269D02*
X12530450Y-13570888D01*
X12530450Y-13570888D02*
X12520926Y-13589936D01*
X12520926Y-13589936D02*
X12511403Y-13599460D01*
X12511403Y-13599460D02*
X12492355Y-13608984D01*
X12492355Y-13608984D02*
X12435212Y-13608984D01*
X12435212Y-13608984D02*
X12416164Y-13599460D01*
X12416164Y-13599460D02*
X12406641Y-13589936D01*
X12701879Y-13408984D02*
X12663783Y-13408984D01*
X12663783Y-13408984D02*
X12644736Y-13418508D01*
X12644736Y-13418508D02*
X12635212Y-13428031D01*
X12635212Y-13428031D02*
X12616164Y-13456603D01*
X12616164Y-13456603D02*
X12606641Y-13494698D01*
X12606641Y-13494698D02*
X12606641Y-13570888D01*
X12606641Y-13570888D02*
X12616164Y-13589936D01*
X12616164Y-13589936D02*
X12625688Y-13599460D01*
X12625688Y-13599460D02*
X12644736Y-13608984D01*
X12644736Y-13608984D02*
X12682831Y-13608984D01*
X12682831Y-13608984D02*
X12701879Y-13599460D01*
X12701879Y-13599460D02*
X12711403Y-13589936D01*
X12711403Y-13589936D02*
X12720926Y-13570888D01*
X12720926Y-13570888D02*
X12720926Y-13523269D01*
X12720926Y-13523269D02*
X12711403Y-13504222D01*
X12711403Y-13504222D02*
X12701879Y-13494698D01*
X12701879Y-13494698D02*
X12682831Y-13485174D01*
X12682831Y-13485174D02*
X12644736Y-13485174D01*
X12644736Y-13485174D02*
X12625688Y-13494698D01*
X12625688Y-13494698D02*
X12616164Y-13504222D01*
X12616164Y-13504222D02*
X12606641Y-13523269D01*
X12959022Y-13608984D02*
X12959022Y-13408984D01*
X13044736Y-13608984D02*
X13044736Y-13504222D01*
X13044736Y-13504222D02*
X13035212Y-13485174D01*
X13035212Y-13485174D02*
X13016165Y-13475650D01*
X13016165Y-13475650D02*
X12987593Y-13475650D01*
X12987593Y-13475650D02*
X12968545Y-13485174D01*
X12968545Y-13485174D02*
X12959022Y-13494698D01*
X13168545Y-13608984D02*
X13149498Y-13599460D01*
X13149498Y-13599460D02*
X13139974Y-13589936D01*
X13139974Y-13589936D02*
X13130450Y-13570888D01*
X13130450Y-13570888D02*
X13130450Y-13513746D01*
X13130450Y-13513746D02*
X13139974Y-13494698D01*
X13139974Y-13494698D02*
X13149498Y-13485174D01*
X13149498Y-13485174D02*
X13168545Y-13475650D01*
X13168545Y-13475650D02*
X13197117Y-13475650D01*
X13197117Y-13475650D02*
X13216165Y-13485174D01*
X13216165Y-13485174D02*
X13225688Y-13494698D01*
X13225688Y-13494698D02*
X13235212Y-13513746D01*
X13235212Y-13513746D02*
X13235212Y-13570888D01*
X13235212Y-13570888D02*
X13225688Y-13589936D01*
X13225688Y-13589936D02*
X13216165Y-13599460D01*
X13216165Y-13599460D02*
X13197117Y-13608984D01*
X13197117Y-13608984D02*
X13168545Y-13608984D01*
X13349498Y-13608984D02*
X13330450Y-13599460D01*
X13330450Y-13599460D02*
X13320926Y-13580412D01*
X13320926Y-13580412D02*
X13320926Y-13408984D01*
X13501879Y-13599460D02*
X13482831Y-13608984D01*
X13482831Y-13608984D02*
X13444736Y-13608984D01*
X13444736Y-13608984D02*
X13425688Y-13599460D01*
X13425688Y-13599460D02*
X13416165Y-13580412D01*
X13416165Y-13580412D02*
X13416165Y-13504222D01*
X13416165Y-13504222D02*
X13425688Y-13485174D01*
X13425688Y-13485174D02*
X13444736Y-13475650D01*
X13444736Y-13475650D02*
X13482831Y-13475650D01*
X13482831Y-13475650D02*
X13501879Y-13485174D01*
X13501879Y-13485174D02*
X13511403Y-13504222D01*
X13511403Y-13504222D02*
X13511403Y-13523269D01*
X13511403Y-13523269D02*
X13416165Y-13542317D01*
X13587593Y-13599460D02*
X13606641Y-13608984D01*
X13606641Y-13608984D02*
X13644736Y-13608984D01*
X13644736Y-13608984D02*
X13663784Y-13599460D01*
X13663784Y-13599460D02*
X13673307Y-13580412D01*
X13673307Y-13580412D02*
X13673307Y-13570888D01*
X13673307Y-13570888D02*
X13663784Y-13551841D01*
X13663784Y-13551841D02*
X13644736Y-13542317D01*
X13644736Y-13542317D02*
X13616165Y-13542317D01*
X13616165Y-13542317D02*
X13597117Y-13532793D01*
X13597117Y-13532793D02*
X13587593Y-13513746D01*
X13587593Y-13513746D02*
X13587593Y-13504222D01*
X13587593Y-13504222D02*
X13597117Y-13485174D01*
X13597117Y-13485174D02*
X13616165Y-13475650D01*
X13616165Y-13475650D02*
X13644736Y-13475650D01*
X13644736Y-13475650D02*
X13663784Y-13485174D01*
X13739974Y-13685174D02*
X13749498Y-13675650D01*
X13749498Y-13675650D02*
X13768546Y-13647079D01*
X13768546Y-13647079D02*
X13778069Y-13628031D01*
X13778069Y-13628031D02*
X13787593Y-13599460D01*
X13787593Y-13599460D02*
X13797117Y-13551841D01*
X13797117Y-13551841D02*
X13797117Y-13513746D01*
X13797117Y-13513746D02*
X13787593Y-13466127D01*
X13787593Y-13466127D02*
X13778069Y-13437555D01*
X13778069Y-13437555D02*
X13768546Y-13418508D01*
X13768546Y-13418508D02*
X13749498Y-13389936D01*
X13749498Y-13389936D02*
X13739974Y-13380412D01*
D12*
X8774435Y-13781500D02*
G75*
G02*
X8674435Y-13781500I-50000J0D01*
G01*
X8674435Y-13781500D02*
G75*
G02*
X8774435Y-13781500I50000J0D01*
G01*
D11*
X9139974Y-13872984D02*
X9025688Y-13872984D01*
X9082831Y-13872984D02*
X9082831Y-13672984D01*
X9082831Y-13672984D02*
X9063783Y-13701555D01*
X9063783Y-13701555D02*
X9044736Y-13720603D01*
X9044736Y-13720603D02*
X9025688Y-13730127D01*
X9225688Y-13853936D02*
X9235212Y-13863460D01*
X9235212Y-13863460D02*
X9225688Y-13872984D01*
X9225688Y-13872984D02*
X9216164Y-13863460D01*
X9216164Y-13863460D02*
X9225688Y-13853936D01*
X9225688Y-13853936D02*
X9225688Y-13872984D01*
X9359021Y-13672984D02*
X9378069Y-13672984D01*
X9378069Y-13672984D02*
X9397117Y-13682508D01*
X9397117Y-13682508D02*
X9406640Y-13692031D01*
X9406640Y-13692031D02*
X9416164Y-13711079D01*
X9416164Y-13711079D02*
X9425688Y-13749174D01*
X9425688Y-13749174D02*
X9425688Y-13796793D01*
X9425688Y-13796793D02*
X9416164Y-13834888D01*
X9416164Y-13834888D02*
X9406640Y-13853936D01*
X9406640Y-13853936D02*
X9397117Y-13863460D01*
X9397117Y-13863460D02*
X9378069Y-13872984D01*
X9378069Y-13872984D02*
X9359021Y-13872984D01*
X9359021Y-13872984D02*
X9339974Y-13863460D01*
X9339974Y-13863460D02*
X9330450Y-13853936D01*
X9330450Y-13853936D02*
X9320926Y-13834888D01*
X9320926Y-13834888D02*
X9311402Y-13796793D01*
X9311402Y-13796793D02*
X9311402Y-13749174D01*
X9311402Y-13749174D02*
X9320926Y-13711079D01*
X9320926Y-13711079D02*
X9330450Y-13692031D01*
X9330450Y-13692031D02*
X9339974Y-13682508D01*
X9339974Y-13682508D02*
X9359021Y-13672984D01*
X9549498Y-13672984D02*
X9568545Y-13672984D01*
X9568545Y-13672984D02*
X9587593Y-13682508D01*
X9587593Y-13682508D02*
X9597117Y-13692031D01*
X9597117Y-13692031D02*
X9606640Y-13711079D01*
X9606640Y-13711079D02*
X9616164Y-13749174D01*
X9616164Y-13749174D02*
X9616164Y-13796793D01*
X9616164Y-13796793D02*
X9606640Y-13834888D01*
X9606640Y-13834888D02*
X9597117Y-13853936D01*
X9597117Y-13853936D02*
X9587593Y-13863460D01*
X9587593Y-13863460D02*
X9568545Y-13872984D01*
X9568545Y-13872984D02*
X9549498Y-13872984D01*
X9549498Y-13872984D02*
X9530450Y-13863460D01*
X9530450Y-13863460D02*
X9520926Y-13853936D01*
X9520926Y-13853936D02*
X9511402Y-13834888D01*
X9511402Y-13834888D02*
X9501879Y-13796793D01*
X9501879Y-13796793D02*
X9501879Y-13749174D01*
X9501879Y-13749174D02*
X9511402Y-13711079D01*
X9511402Y-13711079D02*
X9520926Y-13692031D01*
X9520926Y-13692031D02*
X9530450Y-13682508D01*
X9530450Y-13682508D02*
X9549498Y-13672984D01*
X9739974Y-13672984D02*
X9759021Y-13672984D01*
X9759021Y-13672984D02*
X9778069Y-13682508D01*
X9778069Y-13682508D02*
X9787593Y-13692031D01*
X9787593Y-13692031D02*
X9797117Y-13711079D01*
X9797117Y-13711079D02*
X9806640Y-13749174D01*
X9806640Y-13749174D02*
X9806640Y-13796793D01*
X9806640Y-13796793D02*
X9797117Y-13834888D01*
X9797117Y-13834888D02*
X9787593Y-13853936D01*
X9787593Y-13853936D02*
X9778069Y-13863460D01*
X9778069Y-13863460D02*
X9759021Y-13872984D01*
X9759021Y-13872984D02*
X9739974Y-13872984D01*
X9739974Y-13872984D02*
X9720926Y-13863460D01*
X9720926Y-13863460D02*
X9711402Y-13853936D01*
X9711402Y-13853936D02*
X9701879Y-13834888D01*
X9701879Y-13834888D02*
X9692355Y-13796793D01*
X9692355Y-13796793D02*
X9692355Y-13749174D01*
X9692355Y-13749174D02*
X9701879Y-13711079D01*
X9701879Y-13711079D02*
X9711402Y-13692031D01*
X9711402Y-13692031D02*
X9720926Y-13682508D01*
X9720926Y-13682508D02*
X9739974Y-13672984D01*
X9892355Y-13872984D02*
X9892355Y-13739650D01*
X9892355Y-13758698D02*
X9901879Y-13749174D01*
X9901879Y-13749174D02*
X9920926Y-13739650D01*
X9920926Y-13739650D02*
X9949498Y-13739650D01*
X9949498Y-13739650D02*
X9968545Y-13749174D01*
X9968545Y-13749174D02*
X9978069Y-13768222D01*
X9978069Y-13768222D02*
X9978069Y-13872984D01*
X9978069Y-13768222D02*
X9987593Y-13749174D01*
X9987593Y-13749174D02*
X10006640Y-13739650D01*
X10006640Y-13739650D02*
X10035212Y-13739650D01*
X10035212Y-13739650D02*
X10054260Y-13749174D01*
X10054260Y-13749174D02*
X10063783Y-13768222D01*
X10063783Y-13768222D02*
X10063783Y-13872984D01*
X10159021Y-13872984D02*
X10159021Y-13739650D01*
X10159021Y-13758698D02*
X10168545Y-13749174D01*
X10168545Y-13749174D02*
X10187593Y-13739650D01*
X10187593Y-13739650D02*
X10216164Y-13739650D01*
X10216164Y-13739650D02*
X10235212Y-13749174D01*
X10235212Y-13749174D02*
X10244736Y-13768222D01*
X10244736Y-13768222D02*
X10244736Y-13872984D01*
X10244736Y-13768222D02*
X10254260Y-13749174D01*
X10254260Y-13749174D02*
X10273307Y-13739650D01*
X10273307Y-13739650D02*
X10301879Y-13739650D01*
X10301879Y-13739650D02*
X10320926Y-13749174D01*
X10320926Y-13749174D02*
X10330450Y-13768222D01*
X10330450Y-13768222D02*
X10330450Y-13872984D01*
X10720926Y-13663460D02*
X10549498Y-13920603D01*
X10978069Y-13672984D02*
X10997117Y-13672984D01*
X10997117Y-13672984D02*
X11016164Y-13682508D01*
X11016164Y-13682508D02*
X11025688Y-13692031D01*
X11025688Y-13692031D02*
X11035212Y-13711079D01*
X11035212Y-13711079D02*
X11044736Y-13749174D01*
X11044736Y-13749174D02*
X11044736Y-13796793D01*
X11044736Y-13796793D02*
X11035212Y-13834888D01*
X11035212Y-13834888D02*
X11025688Y-13853936D01*
X11025688Y-13853936D02*
X11016164Y-13863460D01*
X11016164Y-13863460D02*
X10997117Y-13872984D01*
X10997117Y-13872984D02*
X10978069Y-13872984D01*
X10978069Y-13872984D02*
X10959022Y-13863460D01*
X10959022Y-13863460D02*
X10949498Y-13853936D01*
X10949498Y-13853936D02*
X10939974Y-13834888D01*
X10939974Y-13834888D02*
X10930450Y-13796793D01*
X10930450Y-13796793D02*
X10930450Y-13749174D01*
X10930450Y-13749174D02*
X10939974Y-13711079D01*
X10939974Y-13711079D02*
X10949498Y-13692031D01*
X10949498Y-13692031D02*
X10959022Y-13682508D01*
X10959022Y-13682508D02*
X10978069Y-13672984D01*
X11130450Y-13853936D02*
X11139974Y-13863460D01*
X11139974Y-13863460D02*
X11130450Y-13872984D01*
X11130450Y-13872984D02*
X11120926Y-13863460D01*
X11120926Y-13863460D02*
X11130450Y-13853936D01*
X11130450Y-13853936D02*
X11130450Y-13872984D01*
X11263783Y-13672984D02*
X11282831Y-13672984D01*
X11282831Y-13672984D02*
X11301879Y-13682508D01*
X11301879Y-13682508D02*
X11311402Y-13692031D01*
X11311402Y-13692031D02*
X11320926Y-13711079D01*
X11320926Y-13711079D02*
X11330450Y-13749174D01*
X11330450Y-13749174D02*
X11330450Y-13796793D01*
X11330450Y-13796793D02*
X11320926Y-13834888D01*
X11320926Y-13834888D02*
X11311402Y-13853936D01*
X11311402Y-13853936D02*
X11301879Y-13863460D01*
X11301879Y-13863460D02*
X11282831Y-13872984D01*
X11282831Y-13872984D02*
X11263783Y-13872984D01*
X11263783Y-13872984D02*
X11244736Y-13863460D01*
X11244736Y-13863460D02*
X11235212Y-13853936D01*
X11235212Y-13853936D02*
X11225688Y-13834888D01*
X11225688Y-13834888D02*
X11216164Y-13796793D01*
X11216164Y-13796793D02*
X11216164Y-13749174D01*
X11216164Y-13749174D02*
X11225688Y-13711079D01*
X11225688Y-13711079D02*
X11235212Y-13692031D01*
X11235212Y-13692031D02*
X11244736Y-13682508D01*
X11244736Y-13682508D02*
X11263783Y-13672984D01*
X11397117Y-13672984D02*
X11520926Y-13672984D01*
X11520926Y-13672984D02*
X11454260Y-13749174D01*
X11454260Y-13749174D02*
X11482831Y-13749174D01*
X11482831Y-13749174D02*
X11501879Y-13758698D01*
X11501879Y-13758698D02*
X11511402Y-13768222D01*
X11511402Y-13768222D02*
X11520926Y-13787269D01*
X11520926Y-13787269D02*
X11520926Y-13834888D01*
X11520926Y-13834888D02*
X11511402Y-13853936D01*
X11511402Y-13853936D02*
X11501879Y-13863460D01*
X11501879Y-13863460D02*
X11482831Y-13872984D01*
X11482831Y-13872984D02*
X11425688Y-13872984D01*
X11425688Y-13872984D02*
X11406641Y-13863460D01*
X11406641Y-13863460D02*
X11397117Y-13853936D01*
X11616164Y-13872984D02*
X11654260Y-13872984D01*
X11654260Y-13872984D02*
X11673307Y-13863460D01*
X11673307Y-13863460D02*
X11682831Y-13853936D01*
X11682831Y-13853936D02*
X11701879Y-13825365D01*
X11701879Y-13825365D02*
X11711402Y-13787269D01*
X11711402Y-13787269D02*
X11711402Y-13711079D01*
X11711402Y-13711079D02*
X11701879Y-13692031D01*
X11701879Y-13692031D02*
X11692355Y-13682508D01*
X11692355Y-13682508D02*
X11673307Y-13672984D01*
X11673307Y-13672984D02*
X11635212Y-13672984D01*
X11635212Y-13672984D02*
X11616164Y-13682508D01*
X11616164Y-13682508D02*
X11606641Y-13692031D01*
X11606641Y-13692031D02*
X11597117Y-13711079D01*
X11597117Y-13711079D02*
X11597117Y-13758698D01*
X11597117Y-13758698D02*
X11606641Y-13777746D01*
X11606641Y-13777746D02*
X11616164Y-13787269D01*
X11616164Y-13787269D02*
X11635212Y-13796793D01*
X11635212Y-13796793D02*
X11673307Y-13796793D01*
X11673307Y-13796793D02*
X11692355Y-13787269D01*
X11692355Y-13787269D02*
X11701879Y-13777746D01*
X11701879Y-13777746D02*
X11711402Y-13758698D01*
X11882831Y-13739650D02*
X11882831Y-13872984D01*
X11835212Y-13663460D02*
X11787593Y-13806317D01*
X11787593Y-13806317D02*
X11911402Y-13806317D01*
X11978069Y-13672984D02*
X11978069Y-13711079D01*
X12054260Y-13672984D02*
X12054260Y-13711079D01*
X12349498Y-13949174D02*
X12339974Y-13939650D01*
X12339974Y-13939650D02*
X12320926Y-13911079D01*
X12320926Y-13911079D02*
X12311403Y-13892031D01*
X12311403Y-13892031D02*
X12301879Y-13863460D01*
X12301879Y-13863460D02*
X12292355Y-13815841D01*
X12292355Y-13815841D02*
X12292355Y-13777746D01*
X12292355Y-13777746D02*
X12301879Y-13730127D01*
X12301879Y-13730127D02*
X12311403Y-13701555D01*
X12311403Y-13701555D02*
X12320926Y-13682508D01*
X12320926Y-13682508D02*
X12339974Y-13653936D01*
X12339974Y-13653936D02*
X12349498Y-13644412D01*
X12511403Y-13739650D02*
X12511403Y-13872984D01*
X12463783Y-13663460D02*
X12416164Y-13806317D01*
X12416164Y-13806317D02*
X12539974Y-13806317D01*
X12597117Y-13672984D02*
X12720926Y-13672984D01*
X12720926Y-13672984D02*
X12654260Y-13749174D01*
X12654260Y-13749174D02*
X12682831Y-13749174D01*
X12682831Y-13749174D02*
X12701879Y-13758698D01*
X12701879Y-13758698D02*
X12711403Y-13768222D01*
X12711403Y-13768222D02*
X12720926Y-13787269D01*
X12720926Y-13787269D02*
X12720926Y-13834888D01*
X12720926Y-13834888D02*
X12711403Y-13853936D01*
X12711403Y-13853936D02*
X12701879Y-13863460D01*
X12701879Y-13863460D02*
X12682831Y-13872984D01*
X12682831Y-13872984D02*
X12625688Y-13872984D01*
X12625688Y-13872984D02*
X12606641Y-13863460D01*
X12606641Y-13863460D02*
X12597117Y-13853936D01*
X12959022Y-13872984D02*
X12959022Y-13672984D01*
X13044736Y-13872984D02*
X13044736Y-13768222D01*
X13044736Y-13768222D02*
X13035212Y-13749174D01*
X13035212Y-13749174D02*
X13016165Y-13739650D01*
X13016165Y-13739650D02*
X12987593Y-13739650D01*
X12987593Y-13739650D02*
X12968545Y-13749174D01*
X12968545Y-13749174D02*
X12959022Y-13758698D01*
X13168545Y-13872984D02*
X13149498Y-13863460D01*
X13149498Y-13863460D02*
X13139974Y-13853936D01*
X13139974Y-13853936D02*
X13130450Y-13834888D01*
X13130450Y-13834888D02*
X13130450Y-13777746D01*
X13130450Y-13777746D02*
X13139974Y-13758698D01*
X13139974Y-13758698D02*
X13149498Y-13749174D01*
X13149498Y-13749174D02*
X13168545Y-13739650D01*
X13168545Y-13739650D02*
X13197117Y-13739650D01*
X13197117Y-13739650D02*
X13216165Y-13749174D01*
X13216165Y-13749174D02*
X13225688Y-13758698D01*
X13225688Y-13758698D02*
X13235212Y-13777746D01*
X13235212Y-13777746D02*
X13235212Y-13834888D01*
X13235212Y-13834888D02*
X13225688Y-13853936D01*
X13225688Y-13853936D02*
X13216165Y-13863460D01*
X13216165Y-13863460D02*
X13197117Y-13872984D01*
X13197117Y-13872984D02*
X13168545Y-13872984D01*
X13349498Y-13872984D02*
X13330450Y-13863460D01*
X13330450Y-13863460D02*
X13320926Y-13844412D01*
X13320926Y-13844412D02*
X13320926Y-13672984D01*
X13501879Y-13863460D02*
X13482831Y-13872984D01*
X13482831Y-13872984D02*
X13444736Y-13872984D01*
X13444736Y-13872984D02*
X13425688Y-13863460D01*
X13425688Y-13863460D02*
X13416165Y-13844412D01*
X13416165Y-13844412D02*
X13416165Y-13768222D01*
X13416165Y-13768222D02*
X13425688Y-13749174D01*
X13425688Y-13749174D02*
X13444736Y-13739650D01*
X13444736Y-13739650D02*
X13482831Y-13739650D01*
X13482831Y-13739650D02*
X13501879Y-13749174D01*
X13501879Y-13749174D02*
X13511403Y-13768222D01*
X13511403Y-13768222D02*
X13511403Y-13787269D01*
X13511403Y-13787269D02*
X13416165Y-13806317D01*
X13587593Y-13863460D02*
X13606641Y-13872984D01*
X13606641Y-13872984D02*
X13644736Y-13872984D01*
X13644736Y-13872984D02*
X13663784Y-13863460D01*
X13663784Y-13863460D02*
X13673307Y-13844412D01*
X13673307Y-13844412D02*
X13673307Y-13834888D01*
X13673307Y-13834888D02*
X13663784Y-13815841D01*
X13663784Y-13815841D02*
X13644736Y-13806317D01*
X13644736Y-13806317D02*
X13616165Y-13806317D01*
X13616165Y-13806317D02*
X13597117Y-13796793D01*
X13597117Y-13796793D02*
X13587593Y-13777746D01*
X13587593Y-13777746D02*
X13587593Y-13768222D01*
X13587593Y-13768222D02*
X13597117Y-13749174D01*
X13597117Y-13749174D02*
X13616165Y-13739650D01*
X13616165Y-13739650D02*
X13644736Y-13739650D01*
X13644736Y-13739650D02*
X13663784Y-13749174D01*
X13739974Y-13949174D02*
X13749498Y-13939650D01*
X13749498Y-13939650D02*
X13768546Y-13911079D01*
X13768546Y-13911079D02*
X13778069Y-13892031D01*
X13778069Y-13892031D02*
X13787593Y-13863460D01*
X13787593Y-13863460D02*
X13797117Y-13815841D01*
X13797117Y-13815841D02*
X13797117Y-13777746D01*
X13797117Y-13777746D02*
X13787593Y-13730127D01*
X13787593Y-13730127D02*
X13778069Y-13701555D01*
X13778069Y-13701555D02*
X13768546Y-13682508D01*
X13768546Y-13682508D02*
X13749498Y-13653936D01*
X13749498Y-13653936D02*
X13739974Y-13644412D01*
X8674435Y-13945500D02*
X8674435Y-14145500D01*
X8574435Y-14045500D02*
X8774435Y-14045500D01*
X9025688Y-13956031D02*
X9035212Y-13946508D01*
X9035212Y-13946508D02*
X9054259Y-13936984D01*
X9054259Y-13936984D02*
X9101879Y-13936984D01*
X9101879Y-13936984D02*
X9120926Y-13946508D01*
X9120926Y-13946508D02*
X9130450Y-13956031D01*
X9130450Y-13956031D02*
X9139974Y-13975079D01*
X9139974Y-13975079D02*
X9139974Y-13994127D01*
X9139974Y-13994127D02*
X9130450Y-14022698D01*
X9130450Y-14022698D02*
X9016164Y-14136984D01*
X9016164Y-14136984D02*
X9139974Y-14136984D01*
X9225688Y-14117936D02*
X9235212Y-14127460D01*
X9235212Y-14127460D02*
X9225688Y-14136984D01*
X9225688Y-14136984D02*
X9216164Y-14127460D01*
X9216164Y-14127460D02*
X9225688Y-14117936D01*
X9225688Y-14117936D02*
X9225688Y-14136984D01*
X9311402Y-13956031D02*
X9320926Y-13946508D01*
X9320926Y-13946508D02*
X9339974Y-13936984D01*
X9339974Y-13936984D02*
X9387593Y-13936984D01*
X9387593Y-13936984D02*
X9406640Y-13946508D01*
X9406640Y-13946508D02*
X9416164Y-13956031D01*
X9416164Y-13956031D02*
X9425688Y-13975079D01*
X9425688Y-13975079D02*
X9425688Y-13994127D01*
X9425688Y-13994127D02*
X9416164Y-14022698D01*
X9416164Y-14022698D02*
X9301879Y-14136984D01*
X9301879Y-14136984D02*
X9425688Y-14136984D01*
X9549498Y-13936984D02*
X9568545Y-13936984D01*
X9568545Y-13936984D02*
X9587593Y-13946508D01*
X9587593Y-13946508D02*
X9597117Y-13956031D01*
X9597117Y-13956031D02*
X9606640Y-13975079D01*
X9606640Y-13975079D02*
X9616164Y-14013174D01*
X9616164Y-14013174D02*
X9616164Y-14060793D01*
X9616164Y-14060793D02*
X9606640Y-14098888D01*
X9606640Y-14098888D02*
X9597117Y-14117936D01*
X9597117Y-14117936D02*
X9587593Y-14127460D01*
X9587593Y-14127460D02*
X9568545Y-14136984D01*
X9568545Y-14136984D02*
X9549498Y-14136984D01*
X9549498Y-14136984D02*
X9530450Y-14127460D01*
X9530450Y-14127460D02*
X9520926Y-14117936D01*
X9520926Y-14117936D02*
X9511402Y-14098888D01*
X9511402Y-14098888D02*
X9501879Y-14060793D01*
X9501879Y-14060793D02*
X9501879Y-14013174D01*
X9501879Y-14013174D02*
X9511402Y-13975079D01*
X9511402Y-13975079D02*
X9520926Y-13956031D01*
X9520926Y-13956031D02*
X9530450Y-13946508D01*
X9530450Y-13946508D02*
X9549498Y-13936984D01*
X9739974Y-13936984D02*
X9759021Y-13936984D01*
X9759021Y-13936984D02*
X9778069Y-13946508D01*
X9778069Y-13946508D02*
X9787593Y-13956031D01*
X9787593Y-13956031D02*
X9797117Y-13975079D01*
X9797117Y-13975079D02*
X9806640Y-14013174D01*
X9806640Y-14013174D02*
X9806640Y-14060793D01*
X9806640Y-14060793D02*
X9797117Y-14098888D01*
X9797117Y-14098888D02*
X9787593Y-14117936D01*
X9787593Y-14117936D02*
X9778069Y-14127460D01*
X9778069Y-14127460D02*
X9759021Y-14136984D01*
X9759021Y-14136984D02*
X9739974Y-14136984D01*
X9739974Y-14136984D02*
X9720926Y-14127460D01*
X9720926Y-14127460D02*
X9711402Y-14117936D01*
X9711402Y-14117936D02*
X9701879Y-14098888D01*
X9701879Y-14098888D02*
X9692355Y-14060793D01*
X9692355Y-14060793D02*
X9692355Y-14013174D01*
X9692355Y-14013174D02*
X9701879Y-13975079D01*
X9701879Y-13975079D02*
X9711402Y-13956031D01*
X9711402Y-13956031D02*
X9720926Y-13946508D01*
X9720926Y-13946508D02*
X9739974Y-13936984D01*
X9892355Y-14136984D02*
X9892355Y-14003650D01*
X9892355Y-14022698D02*
X9901879Y-14013174D01*
X9901879Y-14013174D02*
X9920926Y-14003650D01*
X9920926Y-14003650D02*
X9949498Y-14003650D01*
X9949498Y-14003650D02*
X9968545Y-14013174D01*
X9968545Y-14013174D02*
X9978069Y-14032222D01*
X9978069Y-14032222D02*
X9978069Y-14136984D01*
X9978069Y-14032222D02*
X9987593Y-14013174D01*
X9987593Y-14013174D02*
X10006640Y-14003650D01*
X10006640Y-14003650D02*
X10035212Y-14003650D01*
X10035212Y-14003650D02*
X10054260Y-14013174D01*
X10054260Y-14013174D02*
X10063783Y-14032222D01*
X10063783Y-14032222D02*
X10063783Y-14136984D01*
X10159021Y-14136984D02*
X10159021Y-14003650D01*
X10159021Y-14022698D02*
X10168545Y-14013174D01*
X10168545Y-14013174D02*
X10187593Y-14003650D01*
X10187593Y-14003650D02*
X10216164Y-14003650D01*
X10216164Y-14003650D02*
X10235212Y-14013174D01*
X10235212Y-14013174D02*
X10244736Y-14032222D01*
X10244736Y-14032222D02*
X10244736Y-14136984D01*
X10244736Y-14032222D02*
X10254260Y-14013174D01*
X10254260Y-14013174D02*
X10273307Y-14003650D01*
X10273307Y-14003650D02*
X10301879Y-14003650D01*
X10301879Y-14003650D02*
X10320926Y-14013174D01*
X10320926Y-14013174D02*
X10330450Y-14032222D01*
X10330450Y-14032222D02*
X10330450Y-14136984D01*
X10720926Y-13927460D02*
X10549498Y-14184603D01*
X10978069Y-13936984D02*
X10997117Y-13936984D01*
X10997117Y-13936984D02*
X11016164Y-13946508D01*
X11016164Y-13946508D02*
X11025688Y-13956031D01*
X11025688Y-13956031D02*
X11035212Y-13975079D01*
X11035212Y-13975079D02*
X11044736Y-14013174D01*
X11044736Y-14013174D02*
X11044736Y-14060793D01*
X11044736Y-14060793D02*
X11035212Y-14098888D01*
X11035212Y-14098888D02*
X11025688Y-14117936D01*
X11025688Y-14117936D02*
X11016164Y-14127460D01*
X11016164Y-14127460D02*
X10997117Y-14136984D01*
X10997117Y-14136984D02*
X10978069Y-14136984D01*
X10978069Y-14136984D02*
X10959022Y-14127460D01*
X10959022Y-14127460D02*
X10949498Y-14117936D01*
X10949498Y-14117936D02*
X10939974Y-14098888D01*
X10939974Y-14098888D02*
X10930450Y-14060793D01*
X10930450Y-14060793D02*
X10930450Y-14013174D01*
X10930450Y-14013174D02*
X10939974Y-13975079D01*
X10939974Y-13975079D02*
X10949498Y-13956031D01*
X10949498Y-13956031D02*
X10959022Y-13946508D01*
X10959022Y-13946508D02*
X10978069Y-13936984D01*
X11130450Y-14117936D02*
X11139974Y-14127460D01*
X11139974Y-14127460D02*
X11130450Y-14136984D01*
X11130450Y-14136984D02*
X11120926Y-14127460D01*
X11120926Y-14127460D02*
X11130450Y-14117936D01*
X11130450Y-14117936D02*
X11130450Y-14136984D01*
X11263783Y-13936984D02*
X11282831Y-13936984D01*
X11282831Y-13936984D02*
X11301879Y-13946508D01*
X11301879Y-13946508D02*
X11311402Y-13956031D01*
X11311402Y-13956031D02*
X11320926Y-13975079D01*
X11320926Y-13975079D02*
X11330450Y-14013174D01*
X11330450Y-14013174D02*
X11330450Y-14060793D01*
X11330450Y-14060793D02*
X11320926Y-14098888D01*
X11320926Y-14098888D02*
X11311402Y-14117936D01*
X11311402Y-14117936D02*
X11301879Y-14127460D01*
X11301879Y-14127460D02*
X11282831Y-14136984D01*
X11282831Y-14136984D02*
X11263783Y-14136984D01*
X11263783Y-14136984D02*
X11244736Y-14127460D01*
X11244736Y-14127460D02*
X11235212Y-14117936D01*
X11235212Y-14117936D02*
X11225688Y-14098888D01*
X11225688Y-14098888D02*
X11216164Y-14060793D01*
X11216164Y-14060793D02*
X11216164Y-14013174D01*
X11216164Y-14013174D02*
X11225688Y-13975079D01*
X11225688Y-13975079D02*
X11235212Y-13956031D01*
X11235212Y-13956031D02*
X11244736Y-13946508D01*
X11244736Y-13946508D02*
X11263783Y-13936984D01*
X11444736Y-14022698D02*
X11425688Y-14013174D01*
X11425688Y-14013174D02*
X11416164Y-14003650D01*
X11416164Y-14003650D02*
X11406641Y-13984603D01*
X11406641Y-13984603D02*
X11406641Y-13975079D01*
X11406641Y-13975079D02*
X11416164Y-13956031D01*
X11416164Y-13956031D02*
X11425688Y-13946508D01*
X11425688Y-13946508D02*
X11444736Y-13936984D01*
X11444736Y-13936984D02*
X11482831Y-13936984D01*
X11482831Y-13936984D02*
X11501879Y-13946508D01*
X11501879Y-13946508D02*
X11511402Y-13956031D01*
X11511402Y-13956031D02*
X11520926Y-13975079D01*
X11520926Y-13975079D02*
X11520926Y-13984603D01*
X11520926Y-13984603D02*
X11511402Y-14003650D01*
X11511402Y-14003650D02*
X11501879Y-14013174D01*
X11501879Y-14013174D02*
X11482831Y-14022698D01*
X11482831Y-14022698D02*
X11444736Y-14022698D01*
X11444736Y-14022698D02*
X11425688Y-14032222D01*
X11425688Y-14032222D02*
X11416164Y-14041746D01*
X11416164Y-14041746D02*
X11406641Y-14060793D01*
X11406641Y-14060793D02*
X11406641Y-14098888D01*
X11406641Y-14098888D02*
X11416164Y-14117936D01*
X11416164Y-14117936D02*
X11425688Y-14127460D01*
X11425688Y-14127460D02*
X11444736Y-14136984D01*
X11444736Y-14136984D02*
X11482831Y-14136984D01*
X11482831Y-14136984D02*
X11501879Y-14127460D01*
X11501879Y-14127460D02*
X11511402Y-14117936D01*
X11511402Y-14117936D02*
X11520926Y-14098888D01*
X11520926Y-14098888D02*
X11520926Y-14060793D01*
X11520926Y-14060793D02*
X11511402Y-14041746D01*
X11511402Y-14041746D02*
X11501879Y-14032222D01*
X11501879Y-14032222D02*
X11482831Y-14022698D01*
X11692355Y-13936984D02*
X11654260Y-13936984D01*
X11654260Y-13936984D02*
X11635212Y-13946508D01*
X11635212Y-13946508D02*
X11625688Y-13956031D01*
X11625688Y-13956031D02*
X11606641Y-13984603D01*
X11606641Y-13984603D02*
X11597117Y-14022698D01*
X11597117Y-14022698D02*
X11597117Y-14098888D01*
X11597117Y-14098888D02*
X11606641Y-14117936D01*
X11606641Y-14117936D02*
X11616164Y-14127460D01*
X11616164Y-14127460D02*
X11635212Y-14136984D01*
X11635212Y-14136984D02*
X11673307Y-14136984D01*
X11673307Y-14136984D02*
X11692355Y-14127460D01*
X11692355Y-14127460D02*
X11701879Y-14117936D01*
X11701879Y-14117936D02*
X11711402Y-14098888D01*
X11711402Y-14098888D02*
X11711402Y-14051269D01*
X11711402Y-14051269D02*
X11701879Y-14032222D01*
X11701879Y-14032222D02*
X11692355Y-14022698D01*
X11692355Y-14022698D02*
X11673307Y-14013174D01*
X11673307Y-14013174D02*
X11635212Y-14013174D01*
X11635212Y-14013174D02*
X11616164Y-14022698D01*
X11616164Y-14022698D02*
X11606641Y-14032222D01*
X11606641Y-14032222D02*
X11597117Y-14051269D01*
X11882831Y-13936984D02*
X11844736Y-13936984D01*
X11844736Y-13936984D02*
X11825688Y-13946508D01*
X11825688Y-13946508D02*
X11816164Y-13956031D01*
X11816164Y-13956031D02*
X11797117Y-13984603D01*
X11797117Y-13984603D02*
X11787593Y-14022698D01*
X11787593Y-14022698D02*
X11787593Y-14098888D01*
X11787593Y-14098888D02*
X11797117Y-14117936D01*
X11797117Y-14117936D02*
X11806641Y-14127460D01*
X11806641Y-14127460D02*
X11825688Y-14136984D01*
X11825688Y-14136984D02*
X11863783Y-14136984D01*
X11863783Y-14136984D02*
X11882831Y-14127460D01*
X11882831Y-14127460D02*
X11892355Y-14117936D01*
X11892355Y-14117936D02*
X11901879Y-14098888D01*
X11901879Y-14098888D02*
X11901879Y-14051269D01*
X11901879Y-14051269D02*
X11892355Y-14032222D01*
X11892355Y-14032222D02*
X11882831Y-14022698D01*
X11882831Y-14022698D02*
X11863783Y-14013174D01*
X11863783Y-14013174D02*
X11825688Y-14013174D01*
X11825688Y-14013174D02*
X11806641Y-14022698D01*
X11806641Y-14022698D02*
X11797117Y-14032222D01*
X11797117Y-14032222D02*
X11787593Y-14051269D01*
X11978069Y-13936984D02*
X11978069Y-13975079D01*
X12054260Y-13936984D02*
X12054260Y-13975079D01*
X12349498Y-14213174D02*
X12339974Y-14203650D01*
X12339974Y-14203650D02*
X12320926Y-14175079D01*
X12320926Y-14175079D02*
X12311403Y-14156031D01*
X12311403Y-14156031D02*
X12301879Y-14127460D01*
X12301879Y-14127460D02*
X12292355Y-14079841D01*
X12292355Y-14079841D02*
X12292355Y-14041746D01*
X12292355Y-14041746D02*
X12301879Y-13994127D01*
X12301879Y-13994127D02*
X12311403Y-13965555D01*
X12311403Y-13965555D02*
X12320926Y-13946508D01*
X12320926Y-13946508D02*
X12339974Y-13917936D01*
X12339974Y-13917936D02*
X12349498Y-13908412D01*
X12416164Y-13956031D02*
X12425688Y-13946508D01*
X12425688Y-13946508D02*
X12444736Y-13936984D01*
X12444736Y-13936984D02*
X12492355Y-13936984D01*
X12492355Y-13936984D02*
X12511403Y-13946508D01*
X12511403Y-13946508D02*
X12520926Y-13956031D01*
X12520926Y-13956031D02*
X12530450Y-13975079D01*
X12530450Y-13975079D02*
X12530450Y-13994127D01*
X12530450Y-13994127D02*
X12520926Y-14022698D01*
X12520926Y-14022698D02*
X12406641Y-14136984D01*
X12406641Y-14136984D02*
X12530450Y-14136984D01*
X12768545Y-14136984D02*
X12768545Y-13936984D01*
X12854260Y-14136984D02*
X12854260Y-14032222D01*
X12854260Y-14032222D02*
X12844736Y-14013174D01*
X12844736Y-14013174D02*
X12825688Y-14003650D01*
X12825688Y-14003650D02*
X12797117Y-14003650D01*
X12797117Y-14003650D02*
X12778069Y-14013174D01*
X12778069Y-14013174D02*
X12768545Y-14022698D01*
X12978069Y-14136984D02*
X12959022Y-14127460D01*
X12959022Y-14127460D02*
X12949498Y-14117936D01*
X12949498Y-14117936D02*
X12939974Y-14098888D01*
X12939974Y-14098888D02*
X12939974Y-14041746D01*
X12939974Y-14041746D02*
X12949498Y-14022698D01*
X12949498Y-14022698D02*
X12959022Y-14013174D01*
X12959022Y-14013174D02*
X12978069Y-14003650D01*
X12978069Y-14003650D02*
X13006641Y-14003650D01*
X13006641Y-14003650D02*
X13025688Y-14013174D01*
X13025688Y-14013174D02*
X13035212Y-14022698D01*
X13035212Y-14022698D02*
X13044736Y-14041746D01*
X13044736Y-14041746D02*
X13044736Y-14098888D01*
X13044736Y-14098888D02*
X13035212Y-14117936D01*
X13035212Y-14117936D02*
X13025688Y-14127460D01*
X13025688Y-14127460D02*
X13006641Y-14136984D01*
X13006641Y-14136984D02*
X12978069Y-14136984D01*
X13159022Y-14136984D02*
X13139974Y-14127460D01*
X13139974Y-14127460D02*
X13130450Y-14108412D01*
X13130450Y-14108412D02*
X13130450Y-13936984D01*
X13311403Y-14127460D02*
X13292355Y-14136984D01*
X13292355Y-14136984D02*
X13254260Y-14136984D01*
X13254260Y-14136984D02*
X13235212Y-14127460D01*
X13235212Y-14127460D02*
X13225688Y-14108412D01*
X13225688Y-14108412D02*
X13225688Y-14032222D01*
X13225688Y-14032222D02*
X13235212Y-14013174D01*
X13235212Y-14013174D02*
X13254260Y-14003650D01*
X13254260Y-14003650D02*
X13292355Y-14003650D01*
X13292355Y-14003650D02*
X13311403Y-14013174D01*
X13311403Y-14013174D02*
X13320926Y-14032222D01*
X13320926Y-14032222D02*
X13320926Y-14051269D01*
X13320926Y-14051269D02*
X13225688Y-14070317D01*
X13397117Y-14127460D02*
X13416165Y-14136984D01*
X13416165Y-14136984D02*
X13454260Y-14136984D01*
X13454260Y-14136984D02*
X13473307Y-14127460D01*
X13473307Y-14127460D02*
X13482831Y-14108412D01*
X13482831Y-14108412D02*
X13482831Y-14098888D01*
X13482831Y-14098888D02*
X13473307Y-14079841D01*
X13473307Y-14079841D02*
X13454260Y-14070317D01*
X13454260Y-14070317D02*
X13425688Y-14070317D01*
X13425688Y-14070317D02*
X13406641Y-14060793D01*
X13406641Y-14060793D02*
X13397117Y-14041746D01*
X13397117Y-14041746D02*
X13397117Y-14032222D01*
X13397117Y-14032222D02*
X13406641Y-14013174D01*
X13406641Y-14013174D02*
X13425688Y-14003650D01*
X13425688Y-14003650D02*
X13454260Y-14003650D01*
X13454260Y-14003650D02*
X13473307Y-14013174D01*
X13549498Y-14213174D02*
X13559022Y-14203650D01*
X13559022Y-14203650D02*
X13578069Y-14175079D01*
X13578069Y-14175079D02*
X13587593Y-14156031D01*
X13587593Y-14156031D02*
X13597117Y-14127460D01*
X13597117Y-14127460D02*
X13606641Y-14079841D01*
X13606641Y-14079841D02*
X13606641Y-14041746D01*
X13606641Y-14041746D02*
X13597117Y-13994127D01*
X13597117Y-13994127D02*
X13587593Y-13965555D01*
X13587593Y-13965555D02*
X13578069Y-13946508D01*
X13578069Y-13946508D02*
X13559022Y-13917936D01*
X13559022Y-13917936D02*
X13549498Y-13908412D01*
M02*
