%TF.GenerationSoftware,KiCad,Pcbnew,10.0.0*%
%TF.CreationDate,2026-07-10T07:55:58+05:30*%
%TF.ProjectId,Lora Tester (EEPROM Programmer),4c6f7261-2054-4657-9374-657220284545,rev?*%
%TF.SameCoordinates,Original*%
%TF.FileFunction,Drillmap*%
%TF.FilePolarity,Positive*%
%FSLAX45Y45*%
G04 Gerber Fmt 4.5, Leading zero omitted, Abs format (unit mm)*
G04 Created by KiCad (PCBNEW 10.0.0) date 2026-07-10 07:55:58*
%MOMM*%
%LPD*%
G01*
G04 APERTURE LIST*
%ADD10C,0.050000*%
%ADD11C,0.200000*%
%ADD12C,0.115200*%
G04 APERTURE END LIST*
D10*
X8776935Y-7275000D02*
X15776935Y-7275000D01*
X15776935Y-12875000D01*
X8776935Y-12875000D01*
X8776935Y-7275000D01*
D11*
D12*
X10017400Y-8584900D02*
X10132600Y-8700100D01*
X10132600Y-8584900D02*
X10017400Y-8700100D01*
X10092400Y-10782400D02*
X10207600Y-10897600D01*
X10207600Y-10782400D02*
X10092400Y-10897600D01*
D11*
X9035212Y-13188984D02*
X9035212Y-12988984D01*
X9035212Y-12988984D02*
X9082831Y-12988984D01*
X9082831Y-12988984D02*
X9111402Y-12998508D01*
X9111402Y-12998508D02*
X9130450Y-13017555D01*
X9130450Y-13017555D02*
X9139974Y-13036603D01*
X9139974Y-13036603D02*
X9149498Y-13074698D01*
X9149498Y-13074698D02*
X9149498Y-13103269D01*
X9149498Y-13103269D02*
X9139974Y-13141365D01*
X9139974Y-13141365D02*
X9130450Y-13160412D01*
X9130450Y-13160412D02*
X9111402Y-13179460D01*
X9111402Y-13179460D02*
X9082831Y-13188984D01*
X9082831Y-13188984D02*
X9035212Y-13188984D01*
X9235212Y-13188984D02*
X9235212Y-13055650D01*
X9235212Y-13093746D02*
X9244736Y-13074698D01*
X9244736Y-13074698D02*
X9254259Y-13065174D01*
X9254259Y-13065174D02*
X9273307Y-13055650D01*
X9273307Y-13055650D02*
X9292355Y-13055650D01*
X9359021Y-13188984D02*
X9359021Y-13055650D01*
X9359021Y-12988984D02*
X9349498Y-12998508D01*
X9349498Y-12998508D02*
X9359021Y-13008031D01*
X9359021Y-13008031D02*
X9368545Y-12998508D01*
X9368545Y-12998508D02*
X9359021Y-12988984D01*
X9359021Y-12988984D02*
X9359021Y-13008031D01*
X9482831Y-13188984D02*
X9463783Y-13179460D01*
X9463783Y-13179460D02*
X9454259Y-13160412D01*
X9454259Y-13160412D02*
X9454259Y-12988984D01*
X9587593Y-13188984D02*
X9568545Y-13179460D01*
X9568545Y-13179460D02*
X9559021Y-13160412D01*
X9559021Y-13160412D02*
X9559021Y-12988984D01*
X9816164Y-13188984D02*
X9816164Y-12988984D01*
X9816164Y-12988984D02*
X9882831Y-13131841D01*
X9882831Y-13131841D02*
X9949498Y-12988984D01*
X9949498Y-12988984D02*
X9949498Y-13188984D01*
X10130450Y-13188984D02*
X10130450Y-13084222D01*
X10130450Y-13084222D02*
X10120926Y-13065174D01*
X10120926Y-13065174D02*
X10101879Y-13055650D01*
X10101879Y-13055650D02*
X10063783Y-13055650D01*
X10063783Y-13055650D02*
X10044736Y-13065174D01*
X10130450Y-13179460D02*
X10111402Y-13188984D01*
X10111402Y-13188984D02*
X10063783Y-13188984D01*
X10063783Y-13188984D02*
X10044736Y-13179460D01*
X10044736Y-13179460D02*
X10035212Y-13160412D01*
X10035212Y-13160412D02*
X10035212Y-13141365D01*
X10035212Y-13141365D02*
X10044736Y-13122317D01*
X10044736Y-13122317D02*
X10063783Y-13112793D01*
X10063783Y-13112793D02*
X10111402Y-13112793D01*
X10111402Y-13112793D02*
X10130450Y-13103269D01*
X10225688Y-13055650D02*
X10225688Y-13255650D01*
X10225688Y-13065174D02*
X10244736Y-13055650D01*
X10244736Y-13055650D02*
X10282831Y-13055650D01*
X10282831Y-13055650D02*
X10301879Y-13065174D01*
X10301879Y-13065174D02*
X10311402Y-13074698D01*
X10311402Y-13074698D02*
X10320926Y-13093746D01*
X10320926Y-13093746D02*
X10320926Y-13150888D01*
X10320926Y-13150888D02*
X10311402Y-13169936D01*
X10311402Y-13169936D02*
X10301879Y-13179460D01*
X10301879Y-13179460D02*
X10282831Y-13188984D01*
X10282831Y-13188984D02*
X10244736Y-13188984D01*
X10244736Y-13188984D02*
X10225688Y-13179460D01*
X10406640Y-13169936D02*
X10416164Y-13179460D01*
X10416164Y-13179460D02*
X10406640Y-13188984D01*
X10406640Y-13188984D02*
X10397117Y-13179460D01*
X10397117Y-13179460D02*
X10406640Y-13169936D01*
X10406640Y-13169936D02*
X10406640Y-13188984D01*
X10406640Y-13065174D02*
X10416164Y-13074698D01*
X10416164Y-13074698D02*
X10406640Y-13084222D01*
X10406640Y-13084222D02*
X10397117Y-13074698D01*
X10397117Y-13074698D02*
X10406640Y-13065174D01*
X10406640Y-13065174D02*
X10406640Y-13084222D01*
D12*
X8659235Y-13459900D02*
X8774435Y-13575100D01*
X8774435Y-13459900D02*
X8659235Y-13575100D01*
D11*
X9139974Y-13608984D02*
X9025688Y-13608984D01*
X9082831Y-13608984D02*
X9082831Y-13408984D01*
X9082831Y-13408984D02*
X9063783Y-13437555D01*
X9063783Y-13437555D02*
X9044736Y-13456603D01*
X9044736Y-13456603D02*
X9025688Y-13466127D01*
X9225688Y-13589936D02*
X9235212Y-13599460D01*
X9235212Y-13599460D02*
X9225688Y-13608984D01*
X9225688Y-13608984D02*
X9216164Y-13599460D01*
X9216164Y-13599460D02*
X9225688Y-13589936D01*
X9225688Y-13589936D02*
X9225688Y-13608984D01*
X9425688Y-13608984D02*
X9311402Y-13608984D01*
X9368545Y-13608984D02*
X9368545Y-13408984D01*
X9368545Y-13408984D02*
X9349498Y-13437555D01*
X9349498Y-13437555D02*
X9330450Y-13456603D01*
X9330450Y-13456603D02*
X9311402Y-13466127D01*
X9606640Y-13408984D02*
X9511402Y-13408984D01*
X9511402Y-13408984D02*
X9501879Y-13504222D01*
X9501879Y-13504222D02*
X9511402Y-13494698D01*
X9511402Y-13494698D02*
X9530450Y-13485174D01*
X9530450Y-13485174D02*
X9578069Y-13485174D01*
X9578069Y-13485174D02*
X9597117Y-13494698D01*
X9597117Y-13494698D02*
X9606640Y-13504222D01*
X9606640Y-13504222D02*
X9616164Y-13523269D01*
X9616164Y-13523269D02*
X9616164Y-13570888D01*
X9616164Y-13570888D02*
X9606640Y-13589936D01*
X9606640Y-13589936D02*
X9597117Y-13599460D01*
X9597117Y-13599460D02*
X9578069Y-13608984D01*
X9578069Y-13608984D02*
X9530450Y-13608984D01*
X9530450Y-13608984D02*
X9511402Y-13599460D01*
X9511402Y-13599460D02*
X9501879Y-13589936D01*
X9692355Y-13428031D02*
X9701879Y-13418508D01*
X9701879Y-13418508D02*
X9720926Y-13408984D01*
X9720926Y-13408984D02*
X9768545Y-13408984D01*
X9768545Y-13408984D02*
X9787593Y-13418508D01*
X9787593Y-13418508D02*
X9797117Y-13428031D01*
X9797117Y-13428031D02*
X9806640Y-13447079D01*
X9806640Y-13447079D02*
X9806640Y-13466127D01*
X9806640Y-13466127D02*
X9797117Y-13494698D01*
X9797117Y-13494698D02*
X9682831Y-13608984D01*
X9682831Y-13608984D02*
X9806640Y-13608984D01*
X9892355Y-13608984D02*
X9892355Y-13475650D01*
X9892355Y-13494698D02*
X9901879Y-13485174D01*
X9901879Y-13485174D02*
X9920926Y-13475650D01*
X9920926Y-13475650D02*
X9949498Y-13475650D01*
X9949498Y-13475650D02*
X9968545Y-13485174D01*
X9968545Y-13485174D02*
X9978069Y-13504222D01*
X9978069Y-13504222D02*
X9978069Y-13608984D01*
X9978069Y-13504222D02*
X9987593Y-13485174D01*
X9987593Y-13485174D02*
X10006640Y-13475650D01*
X10006640Y-13475650D02*
X10035212Y-13475650D01*
X10035212Y-13475650D02*
X10054260Y-13485174D01*
X10054260Y-13485174D02*
X10063783Y-13504222D01*
X10063783Y-13504222D02*
X10063783Y-13608984D01*
X10159021Y-13608984D02*
X10159021Y-13475650D01*
X10159021Y-13494698D02*
X10168545Y-13485174D01*
X10168545Y-13485174D02*
X10187593Y-13475650D01*
X10187593Y-13475650D02*
X10216164Y-13475650D01*
X10216164Y-13475650D02*
X10235212Y-13485174D01*
X10235212Y-13485174D02*
X10244736Y-13504222D01*
X10244736Y-13504222D02*
X10244736Y-13608984D01*
X10244736Y-13504222D02*
X10254260Y-13485174D01*
X10254260Y-13485174D02*
X10273307Y-13475650D01*
X10273307Y-13475650D02*
X10301879Y-13475650D01*
X10301879Y-13475650D02*
X10320926Y-13485174D01*
X10320926Y-13485174D02*
X10330450Y-13504222D01*
X10330450Y-13504222D02*
X10330450Y-13608984D01*
X10720926Y-13399460D02*
X10549498Y-13656603D01*
X10978069Y-13408984D02*
X10997117Y-13408984D01*
X10997117Y-13408984D02*
X11016164Y-13418508D01*
X11016164Y-13418508D02*
X11025688Y-13428031D01*
X11025688Y-13428031D02*
X11035212Y-13447079D01*
X11035212Y-13447079D02*
X11044736Y-13485174D01*
X11044736Y-13485174D02*
X11044736Y-13532793D01*
X11044736Y-13532793D02*
X11035212Y-13570888D01*
X11035212Y-13570888D02*
X11025688Y-13589936D01*
X11025688Y-13589936D02*
X11016164Y-13599460D01*
X11016164Y-13599460D02*
X10997117Y-13608984D01*
X10997117Y-13608984D02*
X10978069Y-13608984D01*
X10978069Y-13608984D02*
X10959022Y-13599460D01*
X10959022Y-13599460D02*
X10949498Y-13589936D01*
X10949498Y-13589936D02*
X10939974Y-13570888D01*
X10939974Y-13570888D02*
X10930450Y-13532793D01*
X10930450Y-13532793D02*
X10930450Y-13485174D01*
X10930450Y-13485174D02*
X10939974Y-13447079D01*
X10939974Y-13447079D02*
X10949498Y-13428031D01*
X10949498Y-13428031D02*
X10959022Y-13418508D01*
X10959022Y-13418508D02*
X10978069Y-13408984D01*
X11130450Y-13589936D02*
X11139974Y-13599460D01*
X11139974Y-13599460D02*
X11130450Y-13608984D01*
X11130450Y-13608984D02*
X11120926Y-13599460D01*
X11120926Y-13599460D02*
X11130450Y-13589936D01*
X11130450Y-13589936D02*
X11130450Y-13608984D01*
X11263783Y-13408984D02*
X11282831Y-13408984D01*
X11282831Y-13408984D02*
X11301879Y-13418508D01*
X11301879Y-13418508D02*
X11311402Y-13428031D01*
X11311402Y-13428031D02*
X11320926Y-13447079D01*
X11320926Y-13447079D02*
X11330450Y-13485174D01*
X11330450Y-13485174D02*
X11330450Y-13532793D01*
X11330450Y-13532793D02*
X11320926Y-13570888D01*
X11320926Y-13570888D02*
X11311402Y-13589936D01*
X11311402Y-13589936D02*
X11301879Y-13599460D01*
X11301879Y-13599460D02*
X11282831Y-13608984D01*
X11282831Y-13608984D02*
X11263783Y-13608984D01*
X11263783Y-13608984D02*
X11244736Y-13599460D01*
X11244736Y-13599460D02*
X11235212Y-13589936D01*
X11235212Y-13589936D02*
X11225688Y-13570888D01*
X11225688Y-13570888D02*
X11216164Y-13532793D01*
X11216164Y-13532793D02*
X11216164Y-13485174D01*
X11216164Y-13485174D02*
X11225688Y-13447079D01*
X11225688Y-13447079D02*
X11235212Y-13428031D01*
X11235212Y-13428031D02*
X11244736Y-13418508D01*
X11244736Y-13418508D02*
X11263783Y-13408984D01*
X11501879Y-13475650D02*
X11501879Y-13608984D01*
X11454260Y-13399460D02*
X11406641Y-13542317D01*
X11406641Y-13542317D02*
X11530450Y-13542317D01*
X11701879Y-13408984D02*
X11606641Y-13408984D01*
X11606641Y-13408984D02*
X11597117Y-13504222D01*
X11597117Y-13504222D02*
X11606641Y-13494698D01*
X11606641Y-13494698D02*
X11625688Y-13485174D01*
X11625688Y-13485174D02*
X11673307Y-13485174D01*
X11673307Y-13485174D02*
X11692355Y-13494698D01*
X11692355Y-13494698D02*
X11701879Y-13504222D01*
X11701879Y-13504222D02*
X11711402Y-13523269D01*
X11711402Y-13523269D02*
X11711402Y-13570888D01*
X11711402Y-13570888D02*
X11701879Y-13589936D01*
X11701879Y-13589936D02*
X11692355Y-13599460D01*
X11692355Y-13599460D02*
X11673307Y-13608984D01*
X11673307Y-13608984D02*
X11625688Y-13608984D01*
X11625688Y-13608984D02*
X11606641Y-13599460D01*
X11606641Y-13599460D02*
X11597117Y-13589936D01*
X11882831Y-13475650D02*
X11882831Y-13608984D01*
X11835212Y-13399460D02*
X11787593Y-13542317D01*
X11787593Y-13542317D02*
X11911402Y-13542317D01*
X11978069Y-13408984D02*
X11978069Y-13447079D01*
X12054260Y-13408984D02*
X12054260Y-13447079D01*
X12349498Y-13685174D02*
X12339974Y-13675650D01*
X12339974Y-13675650D02*
X12320926Y-13647079D01*
X12320926Y-13647079D02*
X12311403Y-13628031D01*
X12311403Y-13628031D02*
X12301879Y-13599460D01*
X12301879Y-13599460D02*
X12292355Y-13551841D01*
X12292355Y-13551841D02*
X12292355Y-13513746D01*
X12292355Y-13513746D02*
X12301879Y-13466127D01*
X12301879Y-13466127D02*
X12311403Y-13437555D01*
X12311403Y-13437555D02*
X12320926Y-13418508D01*
X12320926Y-13418508D02*
X12339974Y-13389936D01*
X12339974Y-13389936D02*
X12349498Y-13380412D01*
X12416164Y-13428031D02*
X12425688Y-13418508D01*
X12425688Y-13418508D02*
X12444736Y-13408984D01*
X12444736Y-13408984D02*
X12492355Y-13408984D01*
X12492355Y-13408984D02*
X12511403Y-13418508D01*
X12511403Y-13418508D02*
X12520926Y-13428031D01*
X12520926Y-13428031D02*
X12530450Y-13447079D01*
X12530450Y-13447079D02*
X12530450Y-13466127D01*
X12530450Y-13466127D02*
X12520926Y-13494698D01*
X12520926Y-13494698D02*
X12406641Y-13608984D01*
X12406641Y-13608984D02*
X12530450Y-13608984D01*
X12768545Y-13608984D02*
X12768545Y-13408984D01*
X12854260Y-13608984D02*
X12854260Y-13504222D01*
X12854260Y-13504222D02*
X12844736Y-13485174D01*
X12844736Y-13485174D02*
X12825688Y-13475650D01*
X12825688Y-13475650D02*
X12797117Y-13475650D01*
X12797117Y-13475650D02*
X12778069Y-13485174D01*
X12778069Y-13485174D02*
X12768545Y-13494698D01*
X12978069Y-13608984D02*
X12959022Y-13599460D01*
X12959022Y-13599460D02*
X12949498Y-13589936D01*
X12949498Y-13589936D02*
X12939974Y-13570888D01*
X12939974Y-13570888D02*
X12939974Y-13513746D01*
X12939974Y-13513746D02*
X12949498Y-13494698D01*
X12949498Y-13494698D02*
X12959022Y-13485174D01*
X12959022Y-13485174D02*
X12978069Y-13475650D01*
X12978069Y-13475650D02*
X13006641Y-13475650D01*
X13006641Y-13475650D02*
X13025688Y-13485174D01*
X13025688Y-13485174D02*
X13035212Y-13494698D01*
X13035212Y-13494698D02*
X13044736Y-13513746D01*
X13044736Y-13513746D02*
X13044736Y-13570888D01*
X13044736Y-13570888D02*
X13035212Y-13589936D01*
X13035212Y-13589936D02*
X13025688Y-13599460D01*
X13025688Y-13599460D02*
X13006641Y-13608984D01*
X13006641Y-13608984D02*
X12978069Y-13608984D01*
X13159022Y-13608984D02*
X13139974Y-13599460D01*
X13139974Y-13599460D02*
X13130450Y-13580412D01*
X13130450Y-13580412D02*
X13130450Y-13408984D01*
X13311403Y-13599460D02*
X13292355Y-13608984D01*
X13292355Y-13608984D02*
X13254260Y-13608984D01*
X13254260Y-13608984D02*
X13235212Y-13599460D01*
X13235212Y-13599460D02*
X13225688Y-13580412D01*
X13225688Y-13580412D02*
X13225688Y-13504222D01*
X13225688Y-13504222D02*
X13235212Y-13485174D01*
X13235212Y-13485174D02*
X13254260Y-13475650D01*
X13254260Y-13475650D02*
X13292355Y-13475650D01*
X13292355Y-13475650D02*
X13311403Y-13485174D01*
X13311403Y-13485174D02*
X13320926Y-13504222D01*
X13320926Y-13504222D02*
X13320926Y-13523269D01*
X13320926Y-13523269D02*
X13225688Y-13542317D01*
X13397117Y-13599460D02*
X13416165Y-13608984D01*
X13416165Y-13608984D02*
X13454260Y-13608984D01*
X13454260Y-13608984D02*
X13473307Y-13599460D01*
X13473307Y-13599460D02*
X13482831Y-13580412D01*
X13482831Y-13580412D02*
X13482831Y-13570888D01*
X13482831Y-13570888D02*
X13473307Y-13551841D01*
X13473307Y-13551841D02*
X13454260Y-13542317D01*
X13454260Y-13542317D02*
X13425688Y-13542317D01*
X13425688Y-13542317D02*
X13406641Y-13532793D01*
X13406641Y-13532793D02*
X13397117Y-13513746D01*
X13397117Y-13513746D02*
X13397117Y-13504222D01*
X13397117Y-13504222D02*
X13406641Y-13485174D01*
X13406641Y-13485174D02*
X13425688Y-13475650D01*
X13425688Y-13475650D02*
X13454260Y-13475650D01*
X13454260Y-13475650D02*
X13473307Y-13485174D01*
X13549498Y-13685174D02*
X13559022Y-13675650D01*
X13559022Y-13675650D02*
X13578069Y-13647079D01*
X13578069Y-13647079D02*
X13587593Y-13628031D01*
X13587593Y-13628031D02*
X13597117Y-13599460D01*
X13597117Y-13599460D02*
X13606641Y-13551841D01*
X13606641Y-13551841D02*
X13606641Y-13513746D01*
X13606641Y-13513746D02*
X13597117Y-13466127D01*
X13597117Y-13466127D02*
X13587593Y-13437555D01*
X13587593Y-13437555D02*
X13578069Y-13418508D01*
X13578069Y-13418508D02*
X13559022Y-13389936D01*
X13559022Y-13389936D02*
X13549498Y-13380412D01*
X13911403Y-13685174D02*
X13901879Y-13675650D01*
X13901879Y-13675650D02*
X13882831Y-13647079D01*
X13882831Y-13647079D02*
X13873307Y-13628031D01*
X13873307Y-13628031D02*
X13863784Y-13599460D01*
X13863784Y-13599460D02*
X13854260Y-13551841D01*
X13854260Y-13551841D02*
X13854260Y-13513746D01*
X13854260Y-13513746D02*
X13863784Y-13466127D01*
X13863784Y-13466127D02*
X13873307Y-13437555D01*
X13873307Y-13437555D02*
X13882831Y-13418508D01*
X13882831Y-13418508D02*
X13901879Y-13389936D01*
X13901879Y-13389936D02*
X13911403Y-13380412D01*
X13987593Y-13475650D02*
X13987593Y-13608984D01*
X13987593Y-13494698D02*
X13997117Y-13485174D01*
X13997117Y-13485174D02*
X14016165Y-13475650D01*
X14016165Y-13475650D02*
X14044736Y-13475650D01*
X14044736Y-13475650D02*
X14063784Y-13485174D01*
X14063784Y-13485174D02*
X14073307Y-13504222D01*
X14073307Y-13504222D02*
X14073307Y-13608984D01*
X14197117Y-13608984D02*
X14178069Y-13599460D01*
X14178069Y-13599460D02*
X14168546Y-13589936D01*
X14168546Y-13589936D02*
X14159022Y-13570888D01*
X14159022Y-13570888D02*
X14159022Y-13513746D01*
X14159022Y-13513746D02*
X14168546Y-13494698D01*
X14168546Y-13494698D02*
X14178069Y-13485174D01*
X14178069Y-13485174D02*
X14197117Y-13475650D01*
X14197117Y-13475650D02*
X14225688Y-13475650D01*
X14225688Y-13475650D02*
X14244736Y-13485174D01*
X14244736Y-13485174D02*
X14254260Y-13494698D01*
X14254260Y-13494698D02*
X14263784Y-13513746D01*
X14263784Y-13513746D02*
X14263784Y-13570888D01*
X14263784Y-13570888D02*
X14254260Y-13589936D01*
X14254260Y-13589936D02*
X14244736Y-13599460D01*
X14244736Y-13599460D02*
X14225688Y-13608984D01*
X14225688Y-13608984D02*
X14197117Y-13608984D01*
X14320927Y-13475650D02*
X14397117Y-13475650D01*
X14349498Y-13408984D02*
X14349498Y-13580412D01*
X14349498Y-13580412D02*
X14359022Y-13599460D01*
X14359022Y-13599460D02*
X14378069Y-13608984D01*
X14378069Y-13608984D02*
X14397117Y-13608984D01*
X14616165Y-13475650D02*
X14616165Y-13675650D01*
X14616165Y-13485174D02*
X14635212Y-13475650D01*
X14635212Y-13475650D02*
X14673308Y-13475650D01*
X14673308Y-13475650D02*
X14692355Y-13485174D01*
X14692355Y-13485174D02*
X14701879Y-13494698D01*
X14701879Y-13494698D02*
X14711403Y-13513746D01*
X14711403Y-13513746D02*
X14711403Y-13570888D01*
X14711403Y-13570888D02*
X14701879Y-13589936D01*
X14701879Y-13589936D02*
X14692355Y-13599460D01*
X14692355Y-13599460D02*
X14673308Y-13608984D01*
X14673308Y-13608984D02*
X14635212Y-13608984D01*
X14635212Y-13608984D02*
X14616165Y-13599460D01*
X14825688Y-13608984D02*
X14806641Y-13599460D01*
X14806641Y-13599460D02*
X14797117Y-13580412D01*
X14797117Y-13580412D02*
X14797117Y-13408984D01*
X14987593Y-13608984D02*
X14987593Y-13504222D01*
X14987593Y-13504222D02*
X14978069Y-13485174D01*
X14978069Y-13485174D02*
X14959022Y-13475650D01*
X14959022Y-13475650D02*
X14920927Y-13475650D01*
X14920927Y-13475650D02*
X14901879Y-13485174D01*
X14987593Y-13599460D02*
X14968546Y-13608984D01*
X14968546Y-13608984D02*
X14920927Y-13608984D01*
X14920927Y-13608984D02*
X14901879Y-13599460D01*
X14901879Y-13599460D02*
X14892355Y-13580412D01*
X14892355Y-13580412D02*
X14892355Y-13561365D01*
X14892355Y-13561365D02*
X14901879Y-13542317D01*
X14901879Y-13542317D02*
X14920927Y-13532793D01*
X14920927Y-13532793D02*
X14968546Y-13532793D01*
X14968546Y-13532793D02*
X14987593Y-13523269D01*
X15054260Y-13475650D02*
X15130450Y-13475650D01*
X15082831Y-13408984D02*
X15082831Y-13580412D01*
X15082831Y-13580412D02*
X15092355Y-13599460D01*
X15092355Y-13599460D02*
X15111403Y-13608984D01*
X15111403Y-13608984D02*
X15130450Y-13608984D01*
X15273308Y-13599460D02*
X15254260Y-13608984D01*
X15254260Y-13608984D02*
X15216165Y-13608984D01*
X15216165Y-13608984D02*
X15197117Y-13599460D01*
X15197117Y-13599460D02*
X15187593Y-13580412D01*
X15187593Y-13580412D02*
X15187593Y-13504222D01*
X15187593Y-13504222D02*
X15197117Y-13485174D01*
X15197117Y-13485174D02*
X15216165Y-13475650D01*
X15216165Y-13475650D02*
X15254260Y-13475650D01*
X15254260Y-13475650D02*
X15273308Y-13485174D01*
X15273308Y-13485174D02*
X15282831Y-13504222D01*
X15282831Y-13504222D02*
X15282831Y-13523269D01*
X15282831Y-13523269D02*
X15187593Y-13542317D01*
X15454260Y-13608984D02*
X15454260Y-13408984D01*
X15454260Y-13599460D02*
X15435212Y-13608984D01*
X15435212Y-13608984D02*
X15397117Y-13608984D01*
X15397117Y-13608984D02*
X15378069Y-13599460D01*
X15378069Y-13599460D02*
X15368546Y-13589936D01*
X15368546Y-13589936D02*
X15359022Y-13570888D01*
X15359022Y-13570888D02*
X15359022Y-13513746D01*
X15359022Y-13513746D02*
X15368546Y-13494698D01*
X15368546Y-13494698D02*
X15378069Y-13485174D01*
X15378069Y-13485174D02*
X15397117Y-13475650D01*
X15397117Y-13475650D02*
X15435212Y-13475650D01*
X15435212Y-13475650D02*
X15454260Y-13485174D01*
X15530450Y-13685174D02*
X15539974Y-13675650D01*
X15539974Y-13675650D02*
X15559022Y-13647079D01*
X15559022Y-13647079D02*
X15568546Y-13628031D01*
X15568546Y-13628031D02*
X15578069Y-13599460D01*
X15578069Y-13599460D02*
X15587593Y-13551841D01*
X15587593Y-13551841D02*
X15587593Y-13513746D01*
X15587593Y-13513746D02*
X15578069Y-13466127D01*
X15578069Y-13466127D02*
X15568546Y-13437555D01*
X15568546Y-13437555D02*
X15559022Y-13418508D01*
X15559022Y-13418508D02*
X15539974Y-13389936D01*
X15539974Y-13389936D02*
X15530450Y-13380412D01*
M02*
