G04 #@! TF.GenerationSoftware,KiCad,Pcbnew,10.0.0*
G04 #@! TF.CreationDate,2026-07-10T07:56:01+05:30*
G04 #@! TF.ProjectId,Lora Tester (EEPROM Programmer),4c6f7261-2054-4657-9374-657220284545,rev?*
G04 #@! TF.SameCoordinates,Original*
G04 #@! TF.FileFunction,Copper,L1,Top*
G04 #@! TF.FilePolarity,Positive*
%FSLAX46Y46*%
G04 Gerber Fmt 4.6, Leading zero omitted, Abs format (unit mm)*
G04 Created by KiCad (PCBNEW 10.0.0) date 2026-07-10 07:56:01*
%MOMM*%
%LPD*%
G01*
G04 APERTURE LIST*
G04 #@! TA.AperFunction,ComponentPad*
%ADD10C,3.800000*%
G04 #@! TD*
G04 #@! TA.AperFunction,ComponentPad*
%ADD11R,1.700000X1.700000*%
G04 #@! TD*
G04 #@! TA.AperFunction,ComponentPad*
%ADD12O,1.700000X1.700000*%
G04 #@! TD*
G04 #@! TA.AperFunction,ComponentPad*
%ADD13R,1.600000X1.600000*%
G04 #@! TD*
G04 #@! TA.AperFunction,ComponentPad*
%ADD14O,1.600000X1.600000*%
G04 #@! TD*
G04 APERTURE END LIST*
D10*
X154850000Y-75725000D03*
X154025000Y-125750000D03*
D11*
X91928951Y-76600000D03*
D12*
X89388951Y-76600000D03*
X91928951Y-79140000D03*
X89388951Y-79140000D03*
X91928951Y-81680000D03*
X89388951Y-81680000D03*
X91928951Y-84220000D03*
X89388951Y-84220000D03*
X91928951Y-86760000D03*
X89388951Y-86760000D03*
X91928951Y-89300000D03*
X89388951Y-89300000D03*
X91928951Y-91840000D03*
X89388951Y-91840000D03*
X91928951Y-94380000D03*
X89388951Y-94380000D03*
X91928951Y-96920000D03*
X89388951Y-96920000D03*
X91928951Y-99460000D03*
X89388951Y-99460000D03*
X91928951Y-102000000D03*
X89388951Y-102000000D03*
X91928951Y-104540000D03*
X89388951Y-104540000D03*
X91928951Y-107080000D03*
X89388951Y-107080000D03*
X91928951Y-109620000D03*
X89388951Y-109620000D03*
X91928951Y-112160000D03*
X89388951Y-112160000D03*
X91928951Y-114700000D03*
X89388951Y-114700000D03*
X91928951Y-117240000D03*
X89388951Y-117240000D03*
X91928951Y-119780000D03*
X89388951Y-119780000D03*
X91928951Y-122320000D03*
X89388951Y-122320000D03*
X91928951Y-124860000D03*
X89388951Y-124860000D03*
D13*
X135140350Y-84250000D03*
D14*
X135140350Y-86790000D03*
X135140350Y-89330000D03*
X135140350Y-91870000D03*
X135140350Y-94410000D03*
X135140350Y-96950000D03*
X135140350Y-99490000D03*
X135140350Y-102030000D03*
X135140350Y-104570000D03*
X135140350Y-107110000D03*
X135140350Y-109650000D03*
X135140350Y-112190000D03*
X135140350Y-114730000D03*
X135140350Y-117270000D03*
X150380350Y-117270000D03*
X150380350Y-114730000D03*
X150380350Y-112190000D03*
X150380350Y-109650000D03*
X150380350Y-107110000D03*
X150380350Y-104570000D03*
X150380350Y-102030000D03*
X150380350Y-99490000D03*
X150380350Y-96950000D03*
X150380350Y-94410000D03*
X150380350Y-91870000D03*
X150380350Y-89330000D03*
X150380350Y-86790000D03*
X150380350Y-84250000D03*
D13*
X138915350Y-105903500D03*
D14*
X138915350Y-108443500D03*
X138915350Y-110983500D03*
X138915350Y-113523500D03*
X146535350Y-113523500D03*
X146535350Y-110983500D03*
X146535350Y-108443500D03*
X146535350Y-105903500D03*
D11*
X117588950Y-76585700D03*
D12*
X115048950Y-76585700D03*
X112508950Y-76585700D03*
M02*
